<svg width="102" height="30" viewBox="0 0 102 30" fill="none" xmlns="http://www.w3.org/2000/svg">
<rect width="102" height="30" rx="8" fill="#F5F8FB"/>
<path d="M13.11 20V9.5H14.58L18.36 16.82L22.11 9.5H23.595V20H22.335V11.75L18.825 18.5H17.88L14.37 11.765V20H13.11ZM28.8252 20.18C28.1252 20.18 27.4952 20.02 26.9352 19.7C26.3752 19.38 25.9302 18.93 25.6002 18.35C25.2802 17.76 25.1202 17.07 25.1202 16.28C25.1202 15.49 25.2852 14.805 25.6152 14.225C25.9452 13.635 26.3902 13.18 26.9502 12.86C27.5202 12.54 28.1552 12.38 28.8552 12.38C29.5552 12.38 30.1852 12.54 30.7452 12.86C31.3052 13.18 31.7452 13.635 32.0652 14.225C32.3952 14.805 32.5602 15.49 32.5602 16.28C32.5602 17.07 32.3952 17.76 32.0652 18.35C31.7352 18.93 31.2852 19.38 30.7152 19.7C30.1552 20.02 29.5252 20.18 28.8252 20.18ZM28.8252 19.1C29.2552 19.1 29.6552 18.995 30.0252 18.785C30.3952 18.575 30.6952 18.26 30.9252 17.84C31.1552 17.42 31.2702 16.9 31.2702 16.28C31.2702 15.66 31.1552 15.14 30.9252 14.72C30.7052 14.3 30.4102 13.985 30.0402 13.775C29.6702 13.565 29.2752 13.46 28.8552 13.46C28.4252 13.46 28.0252 13.565 27.6552 13.775C27.2852 13.985 26.9852 14.3 26.7552 14.72C26.5252 15.14 26.4102 15.66 26.4102 16.28C26.4102 16.9 26.5252 17.42 26.7552 17.84C26.9852 18.26 27.2802 18.575 27.6402 18.785C28.0102 18.995 28.4052 19.1 28.8252 19.1ZM34.0121 20V12.56H35.1521L35.2421 13.64C35.4821 13.24 35.8021 12.93 36.2021 12.71C36.6021 12.49 37.0521 12.38 37.5521 12.38C38.1421 12.38 38.6471 12.5 39.0671 12.74C39.4971 12.98 39.8271 13.345 40.0571 13.835C40.3171 13.385 40.6721 13.03 41.1221 12.77C41.5821 12.51 42.0771 12.38 42.6071 12.38C43.4971 12.38 44.2071 12.65 44.7371 13.19C45.2671 13.72 45.5321 14.54 45.5321 15.65V20H44.2871V15.785C44.2871 15.015 44.1321 14.435 43.8221 14.045C43.5121 13.655 43.0671 13.46 42.4871 13.46C41.8871 13.46 41.3871 13.695 40.9871 14.165C40.5971 14.625 40.4021 15.285 40.4021 16.145V20H39.1421V15.785C39.1421 15.015 38.9871 14.435 38.6771 14.045C38.3671 13.655 37.9221 13.46 37.3421 13.46C36.7521 13.46 36.2571 13.695 35.8571 14.165C35.4671 14.625 35.2721 15.285 35.2721 16.145V20H34.0121ZM50.4751 20.18C49.7651 20.18 49.1351 20.02 48.5851 19.7C48.0351 19.37 47.6001 18.915 47.2801 18.335C46.9701 17.755 46.8151 17.07 46.8151 16.28C46.8151 15.5 46.9701 14.82 47.2801 14.24C47.5901 13.65 48.0201 13.195 48.5701 12.875C49.1301 12.545 49.7751 12.38 50.5051 12.38C51.2251 12.38 51.8451 12.545 52.3651 12.875C52.8951 13.195 53.3001 13.62 53.5801 14.15C53.8601 14.68 54.0001 15.25 54.0001 15.86C54.0001 15.97 53.9951 16.08 53.9851 16.19C53.9851 16.3 53.9851 16.425 53.9851 16.565H48.0601C48.0901 17.135 48.2201 17.61 48.4501 17.99C48.6901 18.36 48.9851 18.64 49.3351 18.83C49.6951 19.02 50.0751 19.115 50.4751 19.115C50.9951 19.115 51.4301 18.995 51.7801 18.755C52.1301 18.515 52.3851 18.19 52.5451 17.78H53.7901C53.5901 18.47 53.2051 19.045 52.6351 19.505C52.0751 19.955 51.3551 20.18 50.4751 20.18ZM50.4751 13.445C49.8751 13.445 49.3401 13.63 48.8701 14C48.4101 14.36 48.1451 14.89 48.0751 15.59H52.7551C52.7251 14.92 52.4951 14.395 52.0651 14.015C51.6351 13.635 51.1051 13.445 50.4751 13.445ZM55.3702 20V12.56H56.5102L56.5852 13.895C56.8252 13.425 57.1702 13.055 57.6202 12.785C58.0702 12.515 58.5802 12.38 59.1502 12.38C60.0302 12.38 60.7302 12.65 61.2502 13.19C61.7802 13.72 62.0452 14.54 62.0452 15.65V20H60.7852V15.785C60.7852 14.235 60.1452 13.46 58.8652 13.46C58.2252 13.46 57.6902 13.695 57.2602 14.165C56.8402 14.625 56.6302 15.285 56.6302 16.145V20H55.3702ZM66.5941 20C65.9141 20 65.3791 19.835 64.9891 19.505C64.5991 19.175 64.4041 18.58 64.4041 17.72V13.625H63.1141V12.56H64.4041L64.5691 10.775H65.6641V12.56H67.8541V13.625H65.6641V17.72C65.6641 18.19 65.7591 18.51 65.9491 18.68C66.1391 18.84 66.4741 18.92 66.9541 18.92H67.7341V20H66.5941ZM71.8699 20.18C70.9899 20.18 70.2899 19.915 69.7699 19.385C69.2499 18.845 68.9899 18.02 68.9899 16.91V12.56H70.2499V16.775C70.2499 18.325 70.8849 19.1 72.1549 19.1C72.8049 19.1 73.3399 18.87 73.7599 18.41C74.1899 17.94 74.4049 17.275 74.4049 16.415V12.56H75.6649V20H74.5249L74.4349 18.665C74.2049 19.135 73.8599 19.505 73.3999 19.775C72.9499 20.045 72.4399 20.18 71.8699 20.18ZM77.4389 20V12.56H78.5789L78.6689 13.64C78.9089 13.24 79.2289 12.93 79.6289 12.71C80.0289 12.49 80.4789 12.38 80.9789 12.38C81.5689 12.38 82.0739 12.5 82.4939 12.74C82.9239 12.98 83.2539 13.345 83.4839 13.835C83.7439 13.385 84.0989 13.03 84.5489 12.77C85.0089 12.51 85.5039 12.38 86.0339 12.38C86.9239 12.38 87.6339 12.65 88.1639 13.19C88.6939 13.72 88.9589 14.54 88.9589 15.65V20H87.7139V15.785C87.7139 15.015 87.5589 14.435 87.2489 14.045C86.9389 13.655 86.4939 13.46 85.9139 13.46C85.3139 13.46 84.8139 13.695 84.4139 14.165C84.0239 14.625 83.8289 15.285 83.8289 16.145V20H82.5689V15.785C82.5689 15.015 82.4139 14.435 82.1039 14.045C81.7939 13.655 81.3489 13.46 80.7689 13.46C80.1789 13.46 79.6839 13.695 79.2839 14.165C78.8939 14.625 78.6989 15.285 78.6989 16.145V20H77.4389Z" fill="#A2B1C3"/>
</svg>
