<svg width="21" height="22" viewBox="0 0 21 22" fill="none" xmlns="http://www.w3.org/2000/svg">
<path d="M19.25 16.1398C18.5623 18.2298 16.5034 21.9303 14.3824 21.9707C12.9754 21.9991 12.523 21.0971 10.9148 21.0971C9.30738 21.0971 8.80425 21.9432 7.47425 21.9982C5.22375 22.0889 1.75 16.6568 1.75 11.9194C1.75 7.568 4.6445 5.41108 7.17325 5.37167C8.5295 5.346 9.8105 6.32958 10.6374 6.32958C11.4678 6.32958 13.0235 5.14708 14.6589 5.32033C15.3431 5.35058 17.2655 5.60908 18.4993 7.49925C15.2259 9.73775 15.736 14.4192 19.25 16.1398ZM14.6808 0C12.208 0.1045 10.1903 2.82242 10.472 5.07008C12.7575 5.25617 14.9503 2.57217 14.6808 0Z" fill="black"/>
</svg>
