<svg width="60" height="30" viewBox="0 0 60 30" fill="none" xmlns="http://www.w3.org/2000/svg">
<rect width="60" height="30" rx="8" fill="#F5F8FB"/>
<path d="M13.11 20V9.5H14.37V18.995H19.26V20H13.11ZM23.6836 20.18C22.9836 20.18 22.3536 20.02 21.7936 19.7C21.2336 19.38 20.7886 18.93 20.4586 18.35C20.1386 17.76 19.9786 17.07 19.9786 16.28C19.9786 15.49 20.1436 14.805 20.4736 14.225C20.8036 13.635 21.2486 13.18 21.8086 12.86C22.3786 12.54 23.0136 12.38 23.7136 12.38C24.4136 12.38 25.0436 12.54 25.6036 12.86C26.1636 13.18 26.6036 13.635 26.9236 14.225C27.2536 14.805 27.4186 15.49 27.4186 16.28C27.4186 17.07 27.2536 17.76 26.9236 18.35C26.5936 18.93 26.1436 19.38 25.5736 19.7C25.0136 20.02 24.3836 20.18 23.6836 20.18ZM23.6836 19.1C24.1136 19.1 24.5136 18.995 24.8836 18.785C25.2536 18.575 25.5536 18.26 25.7836 17.84C26.0136 17.42 26.1286 16.9 26.1286 16.28C26.1286 15.66 26.0136 15.14 25.7836 14.72C25.5636 14.3 25.2686 13.985 24.8986 13.775C24.5286 13.565 24.1336 13.46 23.7136 13.46C23.2836 13.46 22.8836 13.565 22.5136 13.775C22.1436 13.985 21.8436 14.3 21.6136 14.72C21.3836 15.14 21.2686 15.66 21.2686 16.28C21.2686 16.9 21.3836 17.42 21.6136 17.84C21.8436 18.26 22.1386 18.575 22.4986 18.785C22.8686 18.995 23.2636 19.1 23.6836 19.1ZM31.5176 20C30.8376 20 30.3026 19.835 29.9126 19.505C29.5226 19.175 29.3276 18.58 29.3276 17.72V13.625H28.0376V12.56H29.3276L29.4926 10.775H30.5876V12.56H32.7776V13.625H30.5876V17.72C30.5876 18.19 30.6826 18.51 30.8726 18.68C31.0626 18.84 31.3976 18.92 31.8776 18.92H32.6576V20H31.5176ZM37.0184 20C36.3384 20 35.8034 19.835 35.4134 19.505C35.0234 19.175 34.8284 18.58 34.8284 17.72V13.625H33.5384V12.56H34.8284L34.9934 10.775H36.0884V12.56H38.2784V13.625H36.0884V17.72C36.0884 18.19 36.1834 18.51 36.3734 18.68C36.5634 18.84 36.8984 18.92 37.3784 18.92H38.1584V20H37.0184ZM42.7641 20.18C42.0641 20.18 41.4341 20.02 40.8741 19.7C40.3141 19.38 39.8691 18.93 39.5391 18.35C39.2191 17.76 39.0591 17.07 39.0591 16.28C39.0591 15.49 39.2241 14.805 39.5541 14.225C39.8841 13.635 40.3291 13.18 40.8891 12.86C41.4591 12.54 42.0941 12.38 42.7941 12.38C43.4941 12.38 44.1241 12.54 44.6841 12.86C45.2441 13.18 45.6841 13.635 46.0041 14.225C46.3341 14.805 46.4991 15.49 46.4991 16.28C46.4991 17.07 46.3341 17.76 46.0041 18.35C45.6741 18.93 45.2241 19.38 44.6541 19.7C44.0941 20.02 43.4641 20.18 42.7641 20.18ZM42.7641 19.1C43.1941 19.1 43.5941 18.995 43.9641 18.785C44.3341 18.575 44.6341 18.26 44.8641 17.84C45.0941 17.42 45.2091 16.9 45.2091 16.28C45.2091 15.66 45.0941 15.14 44.8641 14.72C44.6441 14.3 44.3491 13.985 43.9791 13.775C43.6091 13.565 43.2141 13.46 42.7941 13.46C42.3641 13.46 41.9641 13.565 41.5941 13.775C41.2241 13.985 40.9241 14.3 40.6941 14.72C40.4641 15.14 40.3491 15.66 40.3491 16.28C40.3491 16.9 40.4641 17.42 40.6941 17.84C40.9241 18.26 41.2191 18.575 41.5791 18.785C41.9491 18.995 42.3441 19.1 42.7641 19.1Z" fill="#A2B1C3"/>
</svg>
