<svg width="71" height="12" viewBox="0 0 71 12" fill="none" xmlns="http://www.w3.org/2000/svg">
<path d="M4.592 11.168C3.87333 11.168 3.26667 11.0327 2.772 10.762C2.27733 10.4913 1.876 10.132 1.568 9.684C1.26933 9.236 1.05467 8.732 0.924 8.172C0.793333 7.612 0.728 7.038 0.728 6.45C0.728 5.36733 0.877333 4.42 1.176 3.608C1.484 2.796 1.92267 2.166 2.492 1.718C3.06133 1.26067 3.752 1.032 4.564 1.032C5.208 1.032 5.75867 1.158 6.216 1.41C6.67333 1.662 7.028 1.998 7.28 2.418C7.54133 2.838 7.7 3.29533 7.756 3.79H6.37C6.286 3.30467 6.08533 2.93133 5.768 2.67C5.45067 2.40867 5.04467 2.278 4.55 2.278C3.86867 2.278 3.304 2.6 2.856 3.244C2.41733 3.87867 2.184 4.85867 2.156 6.184C2.38 5.77333 2.72533 5.42333 3.192 5.134C3.668 4.84467 4.214 4.7 4.83 4.7C5.38067 4.7 5.894 4.83067 6.37 5.092C6.85533 5.35333 7.24733 5.722 7.546 6.198C7.854 6.66467 8.008 7.22 8.008 7.864C8.008 8.43333 7.868 8.97 7.588 9.474C7.308 9.978 6.91133 10.3887 6.398 10.706C5.894 11.014 5.292 11.168 4.592 11.168ZM4.508 9.88C4.9 9.88 5.25 9.796 5.558 9.628C5.866 9.46 6.10867 9.23133 6.286 8.942C6.46333 8.64333 6.552 8.30733 6.552 7.934C6.552 7.33667 6.356 6.86067 5.964 6.506C5.58133 6.15133 5.09133 5.974 4.494 5.974C4.102 5.974 3.74733 6.06267 3.43 6.24C3.122 6.41733 2.87933 6.65533 2.702 6.954C2.52467 7.24333 2.436 7.56533 2.436 7.92C2.436 8.30267 2.52467 8.64333 2.702 8.942C2.88867 9.23133 3.136 9.46 3.444 9.628C3.76133 9.796 4.116 9.88 4.508 9.88ZM14.0057 11V9.04H9.0917V7.864L13.7677 1.2H15.4757V7.752H16.8477V9.04H15.4757V11H14.0057ZM10.7017 7.752H14.0897V2.838L10.7017 7.752ZM19.702 5.876C19.2633 5.876 18.8666 5.778 18.512 5.582C18.1666 5.386 17.8913 5.11067 17.686 4.756C17.4806 4.392 17.378 3.958 17.378 3.454C17.378 2.95933 17.4806 2.53467 17.686 2.18C17.8913 1.816 18.1713 1.536 18.526 1.34C18.8806 1.144 19.2773 1.046 19.716 1.046C20.1453 1.046 20.5326 1.144 20.878 1.34C21.2326 1.536 21.5126 1.816 21.718 2.18C21.9233 2.53467 22.026 2.95933 22.026 3.454C22.026 3.958 21.9233 4.392 21.718 4.756C21.5126 5.11067 21.2326 5.386 20.878 5.582C20.5326 5.778 20.1406 5.876 19.702 5.876ZM19.002 11L24.616 1.2H26.072L20.472 11H19.002ZM19.702 4.812C20.0006 4.812 20.2573 4.7 20.472 4.476C20.696 4.24267 20.808 3.902 20.808 3.454C20.808 3.006 20.7006 2.67 20.486 2.446C20.2713 2.21267 20.01 2.096 19.702 2.096C19.4033 2.096 19.142 2.21267 18.918 2.446C18.694 2.67 18.582 3.006 18.582 3.454C18.582 3.902 18.6893 4.24267 18.904 4.476C19.128 4.7 19.394 4.812 19.702 4.812ZM25.456 11.168C25.0173 11.168 24.6206 11.07 24.266 10.874C23.9206 10.678 23.6453 10.4027 23.44 10.048C23.2346 9.684 23.132 9.25 23.132 8.746C23.132 8.25133 23.2346 7.822 23.44 7.458C23.6453 7.094 23.9253 6.814 24.28 6.618C24.6346 6.422 25.0313 6.324 25.47 6.324C25.8993 6.324 26.2866 6.422 26.632 6.618C26.9866 6.814 27.2666 7.094 27.472 7.458C27.6773 7.822 27.78 8.25133 27.78 8.746C27.78 9.25 27.6773 9.684 27.472 10.048C27.2666 10.4027 26.9866 10.678 26.632 10.874C26.2866 11.07 25.8946 11.168 25.456 11.168ZM25.456 10.09C25.7546 10.09 26.0113 9.978 26.226 9.754C26.45 9.53 26.562 9.194 26.562 8.746C26.562 8.298 26.4546 7.962 26.24 7.738C26.0253 7.50467 25.764 7.388 25.456 7.388C25.1573 7.388 24.896 7.50467 24.672 7.738C24.448 7.962 24.336 8.298 24.336 8.746C24.336 9.194 24.4433 9.53 24.658 9.754C24.882 9.978 25.148 10.09 25.456 10.09Z" fill="#40C8B7"/>
<path d="M36.1244 11.168C35.5551 11.168 35.0464 11.0513 34.5984 10.818C34.1598 10.5847 33.8238 10.258 33.5904 9.838L33.4784 11H32.4144V0.92H33.5904V5.204C33.8144 4.868 34.1318 4.56467 34.5424 4.294C34.9624 4.02333 35.4944 3.888 36.1384 3.888C36.8291 3.888 37.4311 4.04667 37.9444 4.364C38.4578 4.68133 38.8544 5.11533 39.1344 5.666C39.4238 6.21667 39.5684 6.842 39.5684 7.542C39.5684 8.242 39.4238 8.86733 39.1344 9.418C38.8544 9.95933 38.4531 10.3887 37.9304 10.706C37.4171 11.014 36.8151 11.168 36.1244 11.168ZM35.9984 10.146C36.4651 10.146 36.8758 10.0387 37.2304 9.824C37.5851 9.6 37.8651 9.292 38.0704 8.9C38.2758 8.508 38.3784 8.05067 38.3784 7.528C38.3784 7.00533 38.2758 6.548 38.0704 6.156C37.8651 5.764 37.5851 5.46067 37.2304 5.246C36.8758 5.022 36.4651 4.91 35.9984 4.91C35.5318 4.91 35.1211 5.022 34.7664 5.246C34.4118 5.46067 34.1318 5.764 33.9264 6.156C33.7211 6.548 33.6184 7.00533 33.6184 7.528C33.6184 8.05067 33.7211 8.508 33.9264 8.9C34.1318 9.292 34.4118 9.6 34.7664 9.824C35.1211 10.0387 35.5318 10.146 35.9984 10.146ZM43.4395 11.168C42.6181 11.168 41.9648 10.9207 41.4795 10.426C40.9941 9.922 40.7515 9.152 40.7515 8.116V4.056H41.9275V7.99C41.9275 9.43667 42.5201 10.16 43.7055 10.16C44.3121 10.16 44.8115 9.94533 45.2035 9.516C45.6048 9.07733 45.8055 8.45667 45.8055 7.654V4.056H46.9815V11H45.9175L45.8335 9.754C45.6188 10.1927 45.2968 10.538 44.8675 10.79C44.4475 11.042 43.9715 11.168 43.4395 11.168ZM48.6172 11V0.92H49.7932V11H48.6172ZM51.4207 11V0.92H52.5967V11H51.4207ZM54.9382 2.516C54.7049 2.516 54.5089 2.44133 54.3502 2.292C54.2009 2.13333 54.1262 1.93733 54.1262 1.704C54.1262 1.48 54.2009 1.29333 54.3502 1.144C54.5089 0.994666 54.7049 0.92 54.9382 0.92C55.1622 0.92 55.3535 0.994666 55.5122 1.144C55.6709 1.29333 55.7502 1.48 55.7502 1.704C55.7502 1.93733 55.6709 2.13333 55.5122 2.292C55.3535 2.44133 55.1622 2.516 54.9382 2.516ZM54.3502 11V4.056H55.5262V11H54.3502ZM59.9338 11.168C59.1031 11.168 58.4125 10.958 57.8618 10.538C57.3111 10.118 56.9891 9.54867 56.8958 8.83H58.0998C58.1745 9.194 58.3658 9.51133 58.6738 9.782C58.9911 10.0433 59.4158 10.174 59.9478 10.174C60.4425 10.174 60.8065 10.0713 61.0398 9.866C61.2731 9.65133 61.3898 9.39933 61.3898 9.11C61.3898 8.69 61.2358 8.41 60.9278 8.27C60.6291 8.13 60.2045 8.004 59.6538 7.892C59.2805 7.81733 58.9071 7.71 58.5338 7.57C58.1605 7.43 57.8478 7.234 57.5958 6.982C57.3438 6.72067 57.2178 6.38 57.2178 5.96C57.2178 5.35333 57.4418 4.85867 57.8898 4.476C58.3471 4.084 58.9631 3.888 59.7378 3.888C60.4751 3.888 61.0771 4.07467 61.5438 4.448C62.0198 4.812 62.2951 5.33467 62.3698 6.016H61.2078C61.1611 5.66133 61.0071 5.386 60.7458 5.19C60.4938 4.98467 60.1531 4.882 59.7238 4.882C59.3038 4.882 58.9771 4.97067 58.7438 5.148C58.5198 5.32533 58.4078 5.55867 58.4078 5.848C58.4078 6.128 58.5525 6.34733 58.8418 6.506C59.1405 6.66467 59.5418 6.8 60.0458 6.912C60.4751 7.00533 60.8811 7.122 61.2638 7.262C61.6558 7.39267 61.9731 7.59333 62.2158 7.864C62.4678 8.12533 62.5938 8.508 62.5938 9.012C62.6031 9.63733 62.3651 10.1553 61.8798 10.566C61.4038 10.9673 60.7551 11.168 59.9338 11.168ZM63.9738 11V0.92H65.1498V5.246C65.3831 4.81667 65.7145 4.48533 66.1438 4.252C66.5731 4.00933 67.0398 3.888 67.5438 3.888C68.3465 3.888 68.9905 4.14 69.4758 4.644C69.9611 5.13867 70.2038 5.904 70.2038 6.94V11H69.0418V7.066C69.0418 5.61933 68.4585 4.896 67.2918 4.896C66.6851 4.896 66.1765 5.11533 65.7658 5.554C65.3551 5.98333 65.1498 6.59933 65.1498 7.402V11H63.9738Z" fill="#A2B1C3"/>
</svg>
