<svg width="197" height="40" viewBox="0 0 197 40" fill="none" xmlns="http://www.w3.org/2000/svg">
<rect width="197" height="40" rx="8" fill="#F5F8FB"/>
<path d="M17.158 24.168C16.4393 24.168 15.814 24.0373 15.282 23.776C14.75 23.5147 14.3393 23.1507 14.05 22.684C13.7607 22.2173 13.616 21.676 13.616 21.06H14.848C14.848 21.4427 14.9367 21.7973 15.114 22.124C15.2913 22.4413 15.548 22.698 15.884 22.894C16.2293 23.0807 16.654 23.174 17.158 23.174C17.8207 23.174 18.334 23.0153 18.698 22.698C19.062 22.3807 19.244 21.984 19.244 21.508C19.244 21.116 19.16 20.8033 18.992 20.57C18.824 20.3273 18.5953 20.1313 18.306 19.982C18.026 19.8327 17.6993 19.702 17.326 19.59C16.962 19.478 16.5793 19.352 16.178 19.212C15.422 18.9507 14.862 18.6287 14.498 18.246C14.134 17.854 13.952 17.3453 13.952 16.72C13.9427 16.1973 14.064 15.7353 14.316 15.334C14.568 14.9233 14.9227 14.606 15.38 14.382C15.8467 14.1487 16.3973 14.032 17.032 14.032C17.6573 14.032 18.1987 14.1487 18.656 14.382C19.1227 14.6153 19.482 14.9373 19.734 15.348C19.9953 15.7587 20.1307 16.2253 20.14 16.748H18.908C18.908 16.4773 18.838 16.2113 18.698 15.95C18.558 15.6793 18.3433 15.46 18.054 15.292C17.774 15.124 17.4193 15.04 16.99 15.04C16.458 15.0307 16.0193 15.166 15.674 15.446C15.338 15.726 15.17 16.1133 15.17 16.608C15.17 17.028 15.2867 17.35 15.52 17.574C15.7627 17.798 16.0987 17.9847 16.528 18.134C16.9573 18.274 17.452 18.4373 18.012 18.624C18.4787 18.792 18.8987 18.988 19.272 19.212C19.6453 19.436 19.9347 19.7253 20.14 20.08C20.3547 20.4347 20.462 20.8873 20.462 21.438C20.462 21.9047 20.3407 22.348 20.098 22.768C19.8553 23.1787 19.4867 23.5147 18.992 23.776C18.5067 24.0373 17.8953 24.168 17.158 24.168ZM24.9238 24.168C24.2704 24.168 23.6824 24.0187 23.1598 23.72C22.6371 23.4213 22.2217 23.0013 21.9137 22.46C21.6151 21.9093 21.4657 21.2653 21.4657 20.528C21.4657 19.7907 21.6197 19.1513 21.9277 18.61C22.2357 18.0593 22.6511 17.6347 23.1737 17.336C23.7057 17.0373 24.2984 16.888 24.9518 16.888C25.6051 16.888 26.1931 17.0373 26.7157 17.336C27.2384 17.6347 27.6491 18.0593 27.9478 18.61C28.2558 19.1513 28.4098 19.7907 28.4098 20.528C28.4098 21.2653 28.2558 21.9093 27.9478 22.46C27.6398 23.0013 27.2198 23.4213 26.6878 23.72C26.1651 24.0187 25.5771 24.168 24.9238 24.168ZM24.9238 23.16C25.3251 23.16 25.6984 23.062 26.0438 22.866C26.3891 22.67 26.6691 22.376 26.8838 21.984C27.0984 21.592 27.2058 21.1067 27.2058 20.528C27.2058 19.9493 27.0984 19.464 26.8838 19.072C26.6784 18.68 26.4031 18.386 26.0578 18.19C25.7124 17.994 25.3438 17.896 24.9518 17.896C24.5504 17.896 24.1771 17.994 23.8317 18.19C23.4864 18.386 23.2064 18.68 22.9917 19.072C22.7771 19.464 22.6697 19.9493 22.6697 20.528C22.6697 21.1067 22.7771 21.592 22.9917 21.984C23.2064 22.376 23.4817 22.67 23.8177 22.866C24.1631 23.062 24.5318 23.16 24.9238 23.16ZM29.7449 24V17.056H30.8089L30.9069 18.386C31.1216 17.9287 31.4482 17.5647 31.8869 17.294C32.3256 17.0233 32.8669 16.888 33.5109 16.888V18.12H33.1889C32.7782 18.12 32.4002 18.1947 32.0549 18.344C31.7096 18.484 31.4342 18.7267 31.2289 19.072C31.0236 19.4173 30.9209 19.8933 30.9209 20.5V24H29.7449ZM37.2748 24C36.6402 24 36.1408 23.846 35.7768 23.538C35.4128 23.23 35.2308 22.6747 35.2308 21.872V18.05H34.0268V17.056H35.2308L35.3848 15.39H36.4068V17.056H38.4508V18.05H36.4068V21.872C36.4068 22.3107 36.4955 22.6093 36.6728 22.768C36.8502 22.9173 37.1628 22.992 37.6108 22.992H38.3388V24H37.2748ZM46.76 24.168C46.1907 24.168 45.682 24.0513 45.234 23.818C44.7953 23.5847 44.4593 23.258 44.226 22.838L44.114 24H43.05V13.92H44.226V18.204C44.45 17.868 44.7673 17.5647 45.178 17.294C45.598 17.0233 46.13 16.888 46.774 16.888C47.4647 16.888 48.0667 17.0467 48.58 17.364C49.0933 17.6813 49.49 18.1153 49.77 18.666C50.0593 19.2167 50.204 19.842 50.204 20.542C50.204 21.242 50.0593 21.8673 49.77 22.418C49.49 22.9593 49.0887 23.3887 48.566 23.706C48.0527 24.014 47.4507 24.168 46.76 24.168ZM46.634 23.146C47.1007 23.146 47.5113 23.0387 47.866 22.824C48.2207 22.6 48.5007 22.292 48.706 21.9C48.9113 21.508 49.014 21.0507 49.014 20.528C49.014 20.0053 48.9113 19.548 48.706 19.156C48.5007 18.764 48.2207 18.4607 47.866 18.246C47.5113 18.022 47.1007 17.91 46.634 17.91C46.1673 17.91 45.7567 18.022 45.402 18.246C45.0473 18.4607 44.7673 18.764 44.562 19.156C44.3567 19.548 44.254 20.0053 44.254 20.528C44.254 21.0507 44.3567 21.508 44.562 21.9C44.7673 22.292 45.0473 22.6 45.402 22.824C45.7567 23.0387 46.1673 23.146 46.634 23.146ZM51.7365 27.08L53.4585 23.328H53.0525L50.2945 17.056H51.5685L53.8645 22.46L56.3005 17.056H57.5185L52.9685 27.08H51.7365ZM58.8658 24.07C58.6324 24.07 58.4364 23.9953 58.2778 23.846C58.1284 23.6873 58.0538 23.496 58.0538 23.272C58.0538 23.048 58.1284 22.8613 58.2778 22.712C58.4364 22.5533 58.6324 22.474 58.8658 22.474C59.0898 22.474 59.2764 22.5533 59.4258 22.712C59.5844 22.8613 59.6638 23.048 59.6638 23.272C59.6638 23.496 59.5844 23.6873 59.4258 23.846C59.2764 23.9953 59.0898 24.07 58.8658 24.07ZM58.8658 18.484C58.6324 18.484 58.4364 18.4093 58.2778 18.26C58.1284 18.1013 58.0538 17.91 58.0538 17.686C58.0538 17.462 58.1284 17.2753 58.2778 17.126C58.4364 16.9673 58.6324 16.888 58.8658 16.888C59.0898 16.888 59.2764 16.9673 59.4258 17.126C59.5844 17.2753 59.6638 17.462 59.6638 17.686C59.6638 17.91 59.5844 18.1013 59.4258 18.26C59.2764 18.4093 59.0898 18.484 58.8658 18.484Z" fill="#647189"/>
<path d="M66.7199 24V15.166H63.7939V14.2H70.8219V15.166H67.8959V24H66.7199ZM71.8879 24V13.92H73.0639V18.246C73.2972 17.8167 73.6285 17.4853 74.0579 17.252C74.4872 17.0093 74.9539 16.888 75.4579 16.888C76.2605 16.888 76.9045 17.14 77.3899 17.644C77.8752 18.1387 78.1179 18.904 78.1179 19.94V24H76.9559V20.066C76.9559 18.6193 76.3725 17.896 75.2059 17.896C74.5992 17.896 74.0905 18.1153 73.6799 18.554C73.2692 18.9833 73.0639 19.5993 73.0639 20.402V24H71.8879ZM80.3136 15.516C80.0803 15.516 79.8843 15.4413 79.7256 15.292C79.5763 15.1333 79.5016 14.9373 79.5016 14.704C79.5016 14.48 79.5763 14.2933 79.7256 14.144C79.8843 13.9947 80.0803 13.92 80.3136 13.92C80.5376 13.92 80.7289 13.9947 80.8876 14.144C81.0463 14.2933 81.1256 14.48 81.1256 14.704C81.1256 14.9373 81.0463 15.1333 80.8876 15.292C80.7289 15.4413 80.5376 15.516 80.3136 15.516ZM79.7256 24V17.056H80.9016V24H79.7256ZM85.3092 24.168C84.4785 24.168 83.7879 23.958 83.2372 23.538C82.6865 23.118 82.3645 22.5487 82.2712 21.83H83.4752C83.5499 22.194 83.7412 22.5113 84.0492 22.782C84.3665 23.0433 84.7912 23.174 85.3232 23.174C85.8179 23.174 86.1819 23.0713 86.4152 22.866C86.6485 22.6513 86.7652 22.3993 86.7652 22.11C86.7652 21.69 86.6112 21.41 86.3032 21.27C86.0045 21.13 85.5799 21.004 85.0292 20.892C84.6559 20.8173 84.2825 20.71 83.9092 20.57C83.5359 20.43 83.2232 20.234 82.9712 19.982C82.7192 19.7207 82.5932 19.38 82.5932 18.96C82.5932 18.3533 82.8172 17.8587 83.2652 17.476C83.7225 17.084 84.3385 16.888 85.1132 16.888C85.8505 16.888 86.4525 17.0747 86.9192 17.448C87.3952 17.812 87.6705 18.3347 87.7452 19.016H86.5832C86.5365 18.6613 86.3825 18.386 86.1212 18.19C85.8692 17.9847 85.5285 17.882 85.0992 17.882C84.6792 17.882 84.3525 17.9707 84.1192 18.148C83.8952 18.3253 83.7832 18.5587 83.7832 18.848C83.7832 19.128 83.9279 19.3473 84.2172 19.506C84.5159 19.6647 84.9172 19.8 85.4212 19.912C85.8505 20.0053 86.2565 20.122 86.6392 20.262C87.0312 20.3927 87.3485 20.5933 87.5912 20.864C87.8432 21.1253 87.9692 21.508 87.9692 22.012C87.9785 22.6373 87.7405 23.1553 87.2552 23.566C86.7792 23.9673 86.1305 24.168 85.3092 24.168ZM94.1543 24L92.1243 17.056H93.3003L94.7703 22.502L96.3943 17.056H97.7243L99.3623 22.502L100.818 17.056H102.008L99.9783 24H98.7743L97.0663 18.274L95.3583 24H94.1543ZM105.871 24.168C105.209 24.168 104.621 24.0187 104.107 23.72C103.594 23.412 103.188 22.9873 102.889 22.446C102.6 21.9047 102.455 21.2653 102.455 20.528C102.455 19.8 102.6 19.1653 102.889 18.624C103.179 18.0733 103.58 17.6487 104.093 17.35C104.616 17.042 105.218 16.888 105.899 16.888C106.571 16.888 107.15 17.042 107.635 17.35C108.13 17.6487 108.508 18.0453 108.769 18.54C109.031 19.0347 109.161 19.5667 109.161 20.136C109.161 20.2387 109.157 20.3413 109.147 20.444C109.147 20.5467 109.147 20.6633 109.147 20.794H103.617C103.645 21.326 103.767 21.7693 103.981 22.124C104.205 22.4693 104.481 22.7307 104.807 22.908C105.143 23.0853 105.498 23.174 105.871 23.174C106.357 23.174 106.763 23.062 107.089 22.838C107.416 22.614 107.654 22.3107 107.803 21.928H108.965C108.779 22.572 108.419 23.1087 107.887 23.538C107.365 23.958 106.693 24.168 105.871 24.168ZM105.871 17.882C105.311 17.882 104.812 18.0547 104.373 18.4C103.944 18.736 103.697 19.2307 103.631 19.884H107.999C107.971 19.2587 107.757 18.7687 107.355 18.414C106.954 18.0593 106.459 17.882 105.871 17.882ZM113.542 24.168C112.879 24.168 112.291 24.0187 111.778 23.72C111.265 23.412 110.859 22.9873 110.56 22.446C110.271 21.9047 110.126 21.2653 110.126 20.528C110.126 19.8 110.271 19.1653 110.56 18.624C110.849 18.0733 111.251 17.6487 111.764 17.35C112.287 17.042 112.889 16.888 113.57 16.888C114.242 16.888 114.821 17.042 115.306 17.35C115.801 17.6487 116.179 18.0453 116.44 18.54C116.701 19.0347 116.832 19.5667 116.832 20.136C116.832 20.2387 116.827 20.3413 116.818 20.444C116.818 20.5467 116.818 20.6633 116.818 20.794H111.288C111.316 21.326 111.437 21.7693 111.652 22.124C111.876 22.4693 112.151 22.7307 112.478 22.908C112.814 23.0853 113.169 23.174 113.542 23.174C114.027 23.174 114.433 23.062 114.76 22.838C115.087 22.614 115.325 22.3107 115.474 21.928H116.636C116.449 22.572 116.09 23.1087 115.558 23.538C115.035 23.958 114.363 24.168 113.542 24.168ZM113.542 17.882C112.982 17.882 112.483 18.0547 112.044 18.4C111.615 18.736 111.367 19.2307 111.302 19.884H115.67C115.642 19.2587 115.427 18.7687 115.026 18.414C114.625 18.0593 114.13 17.882 113.542 17.882ZM118.091 24V13.92H119.267V19.982L122.109 17.056H123.551L120.471 20.192L123.943 24H122.445L119.267 20.402V24H118.091Z" fill="#A2B1C3"/>
<path d="M174 19L178.25 23.25L182.5 19" stroke="#A2B1C3" stroke-width="2" stroke-linecap="round" stroke-linejoin="round"/>
</svg>
