<svg width="86" height="30" viewBox="0 0 86 30" fill="none" xmlns="http://www.w3.org/2000/svg">
<rect width="86" height="30" rx="8" fill="#55CEBF"/>
<path d="M13.036 20V10.2H14.408L17.936 17.032L21.436 10.2H22.822V20H21.646V12.3L18.37 18.6H17.488L14.212 12.314V20H13.036ZM26.8295 20.168C26.2508 20.168 25.7702 20.07 25.3875 19.874C25.0048 19.678 24.7202 19.4167 24.5335 19.09C24.3468 18.7633 24.2535 18.4087 24.2535 18.026C24.2535 17.3167 24.5242 16.7707 25.0655 16.388C25.6068 16.0053 26.3442 15.814 27.2775 15.814H29.1535V15.73C29.1535 15.1233 28.9948 14.666 28.6775 14.358C28.3602 14.0407 27.9355 13.882 27.4035 13.882C26.9462 13.882 26.5495 13.9987 26.2135 14.232C25.8868 14.456 25.6815 14.7873 25.5975 15.226H24.3935C24.4402 14.722 24.6082 14.2973 24.8975 13.952C25.1962 13.6067 25.5648 13.3453 26.0035 13.168C26.4422 12.9813 26.9088 12.888 27.4035 12.888C28.3742 12.888 29.1022 13.1493 29.5875 13.672C30.0822 14.1853 30.3295 14.8713 30.3295 15.73V20H29.2795L29.2095 18.754C29.0135 19.146 28.7242 19.482 28.3415 19.762C27.9682 20.0327 27.4642 20.168 26.8295 20.168ZM27.0115 19.174C27.4595 19.174 27.8422 19.0573 28.1595 18.824C28.4862 18.5907 28.7335 18.2873 28.9015 17.914C29.0695 17.5407 29.1535 17.1487 29.1535 16.738V16.724H27.3755C26.6848 16.724 26.1948 16.8453 25.9055 17.088C25.6255 17.3213 25.4855 17.6153 25.4855 17.97C25.4855 18.334 25.6162 18.628 25.8775 18.852C26.1482 19.0667 26.5262 19.174 27.0115 19.174ZM34.9437 20.168C34.2531 20.168 33.6464 20.0093 33.1237 19.692C32.6104 19.3747 32.2091 18.9407 31.9197 18.39C31.6397 17.8393 31.4997 17.214 31.4997 16.514C31.4997 15.814 31.6444 15.1933 31.9337 14.652C32.2231 14.1013 32.6244 13.672 33.1377 13.364C33.6511 13.0467 34.2577 12.888 34.9577 12.888C35.5271 12.888 36.0311 13.0047 36.4697 13.238C36.9084 13.4713 37.2491 13.798 37.4917 14.218V9.92H38.6677V20H37.6037L37.4917 18.852C37.2677 19.188 36.9457 19.4913 36.5257 19.762C36.1057 20.0327 35.5784 20.168 34.9437 20.168ZM35.0697 19.146C35.5364 19.146 35.9471 19.0387 36.3017 18.824C36.6657 18.6 36.9457 18.292 37.1417 17.9C37.3471 17.508 37.4497 17.0507 37.4497 16.528C37.4497 16.0053 37.3471 15.548 37.1417 15.156C36.9457 14.764 36.6657 14.4607 36.3017 14.246C35.9471 14.022 35.5364 13.91 35.0697 13.91C34.6124 13.91 34.2017 14.022 33.8377 14.246C33.4831 14.4607 33.2031 14.764 32.9977 15.156C32.8017 15.548 32.7037 16.0053 32.7037 16.528C32.7037 17.0507 32.8017 17.508 32.9977 17.9C33.2031 18.292 33.4831 18.6 33.8377 18.824C34.2017 19.0387 34.6124 19.146 35.0697 19.146ZM43.4068 20.168C42.7441 20.168 42.1561 20.0187 41.6428 19.72C41.1294 19.412 40.7234 18.9873 40.4248 18.446C40.1354 17.9047 39.9908 17.2653 39.9908 16.528C39.9908 15.8 40.1354 15.1653 40.4248 14.624C40.7141 14.0733 41.1154 13.6487 41.6288 13.35C42.1514 13.042 42.7534 12.888 43.4348 12.888C44.1068 12.888 44.6854 13.042 45.1708 13.35C45.6654 13.6487 46.0434 14.0453 46.3048 14.54C46.5661 15.0347 46.6968 15.5667 46.6968 16.136C46.6968 16.2387 46.6921 16.3413 46.6828 16.444C46.6828 16.5467 46.6828 16.6633 46.6828 16.794H41.1528C41.1808 17.326 41.3021 17.7693 41.5168 18.124C41.7408 18.4693 42.0161 18.7307 42.3428 18.908C42.6788 19.0853 43.0334 19.174 43.4068 19.174C43.8921 19.174 44.2981 19.062 44.6248 18.838C44.9514 18.614 45.1894 18.3107 45.3388 17.928H46.5008C46.3141 18.572 45.9548 19.1087 45.4228 19.538C44.9001 19.958 44.2281 20.168 43.4068 20.168ZM43.4068 13.882C42.8468 13.882 42.3474 14.0547 41.9088 14.4C41.4794 14.736 41.2321 15.2307 41.1668 15.884H45.5348C45.5068 15.2587 45.2921 14.7687 44.8908 14.414C44.4894 14.0593 43.9948 13.882 43.4068 13.882ZM52.3965 20V11.516L50.8145 11.866V11.054L52.7885 10.2H53.5865V20H52.3965ZM58.8831 20.168C58.1738 20.168 57.5765 20.0373 57.0911 19.776C56.6058 19.5053 56.2138 19.146 55.9151 18.698C55.6258 18.25 55.4111 17.7507 55.2711 17.2C55.1405 16.64 55.0751 16.0707 55.0751 15.492C55.0751 14.4093 55.2245 13.462 55.5231 12.65C55.8218 11.8287 56.2511 11.1893 56.8111 10.732C57.3805 10.2653 58.0665 10.032 58.8691 10.032C59.4851 10.032 60.0125 10.1533 60.4511 10.396C60.8898 10.6387 61.2351 10.9653 61.4871 11.376C61.7485 11.7773 61.9118 12.2253 61.9771 12.72H60.8851C60.7825 12.188 60.5538 11.7773 60.1991 11.488C59.8445 11.1987 59.3965 11.054 58.8551 11.054C58.1178 11.054 57.4971 11.404 56.9931 12.104C56.4985 12.7947 56.2325 13.8773 56.1951 15.352C56.4191 14.9133 56.7738 14.5353 57.2591 14.218C57.7538 13.8913 58.3465 13.728 59.0371 13.728C59.5971 13.728 60.1198 13.8587 60.6051 14.12C61.0998 14.3813 61.5011 14.75 61.8091 15.226C62.1171 15.6927 62.2711 16.2433 62.2711 16.878C62.2711 17.4287 62.1358 17.956 61.8651 18.46C61.5945 18.964 61.2025 19.3747 60.6891 19.692C60.1851 20.0093 59.5831 20.168 58.8831 20.168ZM58.7991 19.132C59.2378 19.132 59.6298 19.0387 59.9751 18.852C60.3205 18.6653 60.5911 18.4087 60.7871 18.082C60.9831 17.746 61.0811 17.3633 61.0811 16.934C61.0811 16.2713 60.8618 15.744 60.4231 15.352C59.9938 14.9507 59.4525 14.75 58.7991 14.75C58.3605 14.75 57.9685 14.8527 57.6231 15.058C57.2778 15.254 57.0025 15.52 56.7971 15.856C56.6011 16.192 56.5031 16.556 56.5031 16.948C56.5031 17.368 56.6011 17.746 56.7971 18.082C57.0025 18.4087 57.2778 18.6653 57.6231 18.852C57.9685 19.0387 58.3605 19.132 58.7991 19.132ZM65.4051 14.75C64.9851 14.75 64.6024 14.6567 64.2571 14.47C63.9211 14.274 63.6551 14.0033 63.4591 13.658C63.2631 13.3033 63.1651 12.8833 63.1651 12.398C63.1651 11.9127 63.2631 11.4973 63.4591 11.152C63.6644 10.7973 63.9351 10.5267 64.2711 10.34C64.6164 10.144 64.9991 10.046 65.4191 10.046C65.8391 10.046 66.2171 10.144 66.5531 10.34C66.8891 10.5267 67.1551 10.7973 67.3511 11.152C67.5471 11.4973 67.6451 11.9127 67.6451 12.398C67.6451 12.8833 67.5424 13.3033 67.3371 13.658C67.1411 14.0033 66.8751 14.274 66.5391 14.47C66.2031 14.6567 65.8251 14.75 65.4051 14.75ZM64.5371 20L70.2351 10.2H71.4111L65.7131 20H64.5371ZM65.4051 13.84C65.7317 13.84 66.0164 13.7187 66.2591 13.476C66.5111 13.2333 66.6371 12.874 66.6371 12.398C66.6371 11.9127 66.5157 11.5487 66.2731 11.306C66.0304 11.054 65.7457 10.928 65.4191 10.928C65.0924 10.928 64.7984 11.054 64.5371 11.306C64.2851 11.5487 64.1591 11.9127 64.1591 12.398C64.1591 12.874 64.2851 13.2333 64.5371 13.476C64.7891 13.7187 65.0784 13.84 65.4051 13.84ZM70.6411 20.168C70.2211 20.168 69.8384 20.0747 69.4931 19.888C69.1571 19.692 68.8911 19.4213 68.6951 19.076C68.4991 18.7213 68.4011 18.3013 68.4011 17.816C68.4011 17.3307 68.4991 16.9153 68.6951 16.57C68.9004 16.2153 69.1711 15.9447 69.5071 15.758C69.8431 15.562 70.2211 15.464 70.6411 15.464C71.0611 15.464 71.4391 15.562 71.7751 15.758C72.1111 15.9447 72.3771 16.2153 72.5731 16.57C72.7691 16.9153 72.8671 17.3307 72.8671 17.816C72.8671 18.3013 72.7691 18.7213 72.5731 19.076C72.3771 19.4213 72.1111 19.692 71.7751 19.888C71.4391 20.0747 71.0611 20.168 70.6411 20.168ZM70.6271 19.258C70.9631 19.258 71.2524 19.1367 71.4951 18.894C71.7471 18.6513 71.8731 18.292 71.8731 17.816C71.8731 17.3307 71.7517 16.9667 71.5091 16.724C71.2664 16.4813 70.9771 16.36 70.6411 16.36C70.3144 16.36 70.0251 16.4813 69.7731 16.724C69.5211 16.9667 69.3951 17.3307 69.3951 17.816C69.3951 18.292 69.5164 18.6513 69.7591 18.894C70.0111 19.1367 70.3004 19.258 70.6271 19.258Z" fill="white"/>
</svg>
