<svg width="754" height="172" viewBox="0 0 754 172" fill="none" xmlns="http://www.w3.org/2000/svg">
<path fill-rule="evenodd" clip-rule="evenodd" d="M-4.67578 308.129L-3.23653 121.46C-2.71737 120.634 -1.11809 120.203 0.335567 120.498C0.974787 120.628 1.50909 120.886 1.83873 121.223C2.55663 121.958 4.18616 122.223 5.47839 121.814C6.07247 121.627 6.51875 121.318 6.72672 120.95L10.288 114.651C11.1837 113.066 14.1689 112.195 16.9556 112.704C18.6404 113.012 19.9437 113.778 20.4299 114.745L21.9325 117.735C22.8362 119.533 26.1327 120.574 29.2956 120.061C30.5455 119.858 31.6442 119.428 32.4241 118.836C33.8841 117.73 36.6455 117.505 38.5921 118.336C39.6267 118.777 40.2681 119.454 40.3463 120.188L40.8201 124.633C40.91 125.475 42.1843 126.117 43.6664 126.066C44.8732 126.024 45.8828 125.53 46.1337 124.857L46.7031 123.332C47.1679 122.086 49.3211 121.29 51.5124 121.554C53.0407 121.739 54.247 122.406 54.6135 123.269C55.1558 124.546 57.4166 125.332 59.6631 125.023C61.2098 124.811 62.411 124.118 62.7624 123.236L71.2182 102.003C71.7255 100.729 73.9528 99.9307 76.1932 100.219C77.156 100.343 78.0098 100.658 78.6021 101.107C79.9349 102.117 82.4559 102.322 84.2329 101.564C85.0246 101.226 85.5696 100.735 85.7637 100.183L90.1609 87.6831C90.9744 85.3705 94.9314 83.8707 98.9991 84.3332C101.39 84.605 103.4 85.5196 104.39 86.7863L109.594 93.4438C110.559 94.6784 113.102 95.2344 115.274 94.6857C116.354 94.4126 117.19 93.8986 117.583 93.2645C118.265 92.1661 120.384 91.59 122.316 91.9776C123.396 92.1942 124.239 92.6821 124.601 93.2995L134.17 109.622C135.982 112.711 141.855 114.381 147.289 113.351C150.798 112.686 153.418 111.008 154.166 108.949L157.347 100.184C158.147 97.979 161.94 96.5606 165.817 97.0155C168.114 97.285 170.034 98.1762 170.958 99.4018L175.617 105.582C176.8 107.151 179.995 107.878 182.755 107.205C183.853 106.938 184.765 106.472 185.351 105.88C186.804 104.411 190.077 103.89 192.66 104.716C193.704 105.05 194.522 105.574 194.983 106.202L207.07 122.695C208.541 124.703 212.598 125.652 216.13 124.816C218.085 124.352 219.561 123.406 220.134 122.246L222.244 117.981C222.833 116.791 225.007 116.098 227.101 116.432C228.316 116.627 229.294 117.14 229.73 117.814C230.62 119.188 233.302 119.892 235.719 119.385C236.959 119.126 237.947 118.579 238.438 117.882L245.715 107.539C247.126 105.533 251.128 104.558 254.656 105.36C256.001 105.666 257.143 106.206 257.916 106.903C259.616 108.433 263.176 108.89 265.868 107.924C267.122 107.473 268.022 106.766 268.382 105.948L271.533 98.7823C272.333 96.961 275.579 95.8537 278.783 96.309C280.885 96.6079 282.539 97.5303 283.104 98.7198L285.972 104.752C286.815 106.525 290.026 107.574 293.145 107.095C294.405 106.901 295.515 106.474 296.298 105.88C298.497 104.213 302.656 103.875 305.588 105.125C306.586 105.551 307.353 106.128 307.8 106.789L309.492 109.29C310.953 111.449 315.216 112.526 319.015 111.696C320.731 111.321 322.138 110.594 322.96 109.659L327.269 104.759C329.808 101.873 331.982 98.8883 333.777 95.8271L337.426 89.6031C337.98 88.658 339.777 88.1473 341.439 88.4623C342.109 88.5892 342.684 88.8392 343.076 89.173C343.955 89.9227 345.737 90.1253 347.055 89.6255C347.649 89.4003 348.074 89.0574 348.247 88.6637L355.736 71.6337C356.886 69.0175 361.549 67.4268 366.151 68.0809C369.323 68.5317 371.77 69.9673 372.462 71.784L377.819 85.8405C378.46 87.5224 381.377 88.5904 384.336 88.226C385.566 88.0744 386.668 87.6863 387.455 87.1272C390.736 84.7952 396.721 84.4172 400.823 86.2827C401.295 86.4974 401.73 86.7371 402.122 86.9987L408.445 91.2187C412.186 93.7158 418.78 94.0157 423.172 91.8886C424.931 91.0364 426.144 89.8766 426.62 88.5908L429.435 80.9899C430.441 78.2716 435.133 76.5319 439.914 77.1042C443.093 77.4846 445.649 78.8245 446.573 80.5947L448.809 84.8775C450.252 87.6407 455.362 89.2157 460.222 88.3954C463.495 87.843 465.958 86.3039 466.617 84.3995C467.592 81.5814 472.401 79.7462 477.358 80.3006C480.701 80.6745 483.401 82.0737 484.365 83.9315L484.608 84.3995C485.78 86.6566 489.948 87.9464 493.918 87.2804C496.837 86.7906 498.946 85.3455 499.253 83.6237L502.427 65.8363C502.816 63.6548 506.242 62.0658 510.079 62.2871C511.531 62.3709 512.9 62.7111 513.994 63.26C518.702 65.6216 525.885 65.3663 530.039 62.6899C530.486 62.402 530.886 62.092 531.237 61.7637L536.639 56.6952C540.206 53.3492 547.869 52.2806 553.754 54.3085C555.721 54.9863 557.32 55.9603 558.373 57.1228C560.355 59.3105 565.082 60.1704 568.93 59.0434C571.041 58.4251 572.545 57.296 573.02 55.9731L576.056 47.5137C576.883 45.2117 580.835 43.7264 584.884 44.1962C587.198 44.4647 589.153 45.3383 590.158 46.553C591.816 48.5567 596.018 49.4166 599.542 48.4737C601.634 47.9141 603.11 46.8073 603.494 45.5112L615.862 3.73358C616.433 1.80524 619.645 0.505131 623.037 0.829702C625.341 1.05015 627.234 1.98506 627.94 3.25112L633.961 14.0478C635.144 16.1683 636.508 18.2546 638.05 20.2993L641.134 24.3906C642.001 25.5412 644.345 26.0741 646.368 25.581C647.622 25.2756 648.513 24.6272 648.733 23.862L651.473 14.2918C652.024 12.3666 655.216 11.0599 658.602 11.3733C660.708 11.5682 662.49 12.3635 663.323 13.4799L666.456 17.678C667.977 19.7173 672.119 20.6692 675.706 19.804C677.029 19.485 678.148 18.944 678.916 18.2533C680.367 16.9466 683.407 16.5563 685.706 17.3816C686.933 17.8222 687.755 18.5481 687.954 19.3654L690.195 28.6047C690.671 30.5678 691.298 32.5182 692.073 34.4503L701.302 57.4557C702.221 59.7454 706.23 61.1782 710.258 60.656C712.616 60.3503 714.568 59.415 715.499 58.1456C716.94 56.1785 720.914 55.2482 724.374 56.0679C726.52 56.5763 728.059 57.6739 728.453 58.9767L738.158 91.1109C738.645 92.7234 741.339 93.8061 744.176 93.5293C746.502 93.3021 748.269 92.2143 748.483 90.8778L750.573 77.809C750.839 76.1436 758.562 74.8275 761.492 74.9789C763.208 75.0676 760.477 308.129 761.345 308.975" fill="url(#paint0_linear)"/>
<path d="M-4.67578 308.129L-3.23653 121.46C-2.71737 120.634 -1.11809 120.203 0.335567 120.498C0.974787 120.628 1.50909 120.886 1.83873 121.223C2.55663 121.958 4.18616 122.223 5.47839 121.814C6.07247 121.627 6.51875 121.318 6.72672 120.95L10.288 114.651C11.1837 113.066 14.1689 112.195 16.9556 112.704C18.6404 113.012 19.9437 113.778 20.4299 114.745L21.9325 117.735C22.8362 119.533 26.1327 120.574 29.2956 120.061C30.5455 119.858 31.6442 119.428 32.4241 118.836C33.8841 117.73 36.6455 117.505 38.5921 118.336C39.6267 118.777 40.2681 119.454 40.3463 120.188L40.8201 124.633C40.91 125.475 42.1843 126.117 43.6664 126.066C44.8732 126.024 45.8828 125.53 46.1337 124.857L46.7031 123.332C47.1679 122.086 49.3211 121.29 51.5124 121.554C53.0407 121.739 54.247 122.406 54.6135 123.269C55.1558 124.546 57.4166 125.332 59.6631 125.023C61.2098 124.811 62.411 124.118 62.7624 123.236L71.2182 102.003C71.7255 100.729 73.9528 99.9307 76.1932 100.219C77.156 100.343 78.0098 100.658 78.6021 101.107C79.9349 102.117 82.4559 102.322 84.2329 101.564C85.0246 101.226 85.5696 100.735 85.7637 100.183L90.1609 87.6831C90.9744 85.3705 94.9314 83.8707 98.9991 84.3332C101.39 84.605 103.4 85.5196 104.39 86.7863L109.594 93.4438C110.559 94.6784 113.102 95.2344 115.274 94.6857C116.354 94.4126 117.19 93.8986 117.583 93.2645C118.265 92.1661 120.384 91.59 122.316 91.9776C123.396 92.1942 124.239 92.6821 124.601 93.2995L134.17 109.622C135.982 112.711 141.855 114.381 147.289 113.351C150.798 112.686 153.418 111.008 154.166 108.949L157.347 100.184C158.147 97.979 161.94 96.5606 165.817 97.0155C168.114 97.285 170.034 98.1762 170.958 99.4018L175.617 105.582C176.8 107.151 179.995 107.878 182.755 107.205C183.853 106.938 184.765 106.472 185.351 105.88C186.804 104.411 190.077 103.89 192.66 104.716C193.704 105.05 194.522 105.574 194.983 106.202L207.07 122.695C208.541 124.703 212.598 125.652 216.13 124.816C218.085 124.352 219.561 123.406 220.134 122.246L222.244 117.981C222.833 116.791 225.007 116.098 227.101 116.432C228.316 116.627 229.294 117.14 229.73 117.814C230.621 119.188 233.302 119.892 235.719 119.385C236.959 119.126 237.947 118.579 238.438 117.882L245.715 107.539C247.126 105.533 251.128 104.558 254.656 105.36C256.001 105.666 257.143 106.206 257.916 106.903C259.616 108.433 263.176 108.89 265.868 107.924C267.122 107.473 268.022 106.766 268.382 105.948L271.532 98.7823C272.333 96.961 275.579 95.8537 278.783 96.309C280.885 96.6079 282.539 97.5303 283.104 98.7198L285.972 104.752C286.815 106.525 290.026 107.574 293.145 107.095C294.405 106.901 295.515 106.474 296.298 105.88C298.497 104.213 302.656 103.875 305.588 105.125C306.586 105.551 307.353 106.128 307.8 106.789L309.492 109.29C310.953 111.449 315.216 112.526 319.015 111.696C320.731 111.321 322.138 110.594 322.96 109.659L327.269 104.759C329.808 101.873 331.982 98.8883 333.777 95.8271L337.426 89.6031C337.98 88.658 339.777 88.1473 341.439 88.4623C342.109 88.5892 342.684 88.8392 343.076 89.173C343.955 89.9227 345.737 90.1253 347.055 89.6255C347.649 89.4003 348.074 89.0574 348.247 88.6637L355.736 71.6337C356.886 69.0175 361.549 67.4268 366.151 68.0809C369.323 68.5317 371.769 69.9673 372.462 71.784L377.819 85.8405C378.46 87.5224 381.377 88.5904 384.336 88.226C385.566 88.0744 386.668 87.6863 387.455 87.1272C390.736 84.7952 396.721 84.4172 400.823 86.2827C401.295 86.4974 401.73 86.7371 402.122 86.9987L408.445 91.2187C412.186 93.7158 418.78 94.0157 423.172 91.8886C424.931 91.0364 426.144 89.8767 426.62 88.5908L429.435 80.9899C430.441 78.2716 435.133 76.5319 439.914 77.1042C443.093 77.4846 445.649 78.8245 446.573 80.5947L448.809 84.8775C450.252 87.6407 455.362 89.2157 460.222 88.3954C463.495 87.843 465.958 86.3039 466.617 84.3995C467.592 81.5814 472.401 79.7462 477.358 80.3006C480.701 80.6745 483.401 82.0737 484.365 83.9315L484.608 84.3995C485.78 86.6566 489.948 87.9464 493.918 87.2804C496.837 86.7906 498.946 85.3455 499.253 83.6237L502.427 65.8363C502.816 63.6548 506.242 62.0658 510.079 62.2871C511.531 62.3709 512.9 62.7111 513.994 63.26C518.702 65.6216 525.885 65.3663 530.039 62.6899C530.486 62.402 530.886 62.092 531.237 61.7637L536.639 56.6952C540.206 53.3492 547.869 52.2806 553.754 54.3085C555.721 54.9863 557.32 55.9603 558.373 57.1228C560.355 59.3105 565.082 60.1704 568.93 59.0434C571.041 58.4251 572.545 57.296 573.02 55.9731L576.056 47.5137C576.883 45.2117 580.835 43.7264 584.884 44.1962C587.197 44.4647 589.153 45.3383 590.158 46.553C591.816 48.5567 596.018 49.4166 599.542 48.4737C601.634 47.9141 603.11 46.8073 603.494 45.5113L615.862 3.73358C616.433 1.80524 619.645 0.505131 623.037 0.829702C625.341 1.05015 627.234 1.98506 627.94 3.25112L633.961 14.0478C635.144 16.1683 636.508 18.2546 638.05 20.2993L641.134 24.3906C642.001 25.5412 644.345 26.0741 646.368 25.581C647.622 25.2756 648.513 24.6272 648.733 23.862L651.473 14.2918C652.024 12.3666 655.216 11.0599 658.602 11.3733C660.708 11.5682 662.49 12.3635 663.323 13.4799L666.456 17.678C667.977 19.7173 672.119 20.6692 675.706 19.804C677.029 19.485 678.148 18.944 678.916 18.2533C680.367 16.9466 683.407 16.5563 685.706 17.3816C686.933 17.8222 687.755 18.5481 687.954 19.3654L690.195 28.6047C690.671 30.5678 691.298 32.5182 692.073 34.4503L701.302 57.4557C702.221 59.7454 706.23 61.1783 710.258 60.656C712.616 60.3503 714.568 59.415 715.499 58.1456C716.94 56.1785 720.914 55.2482 724.374 56.0679C726.52 56.5763 728.059 57.6739 728.453 58.9767L738.158 91.1109C738.645 92.7234 741.339 93.8061 744.176 93.5292C746.502 93.3021 748.269 92.2143 748.483 90.8778L750.573 77.809C750.839 76.1436 758.562 74.8275 761.492 74.9789C763.208 75.0676 760.477 308.129 761.345 308.975L760.477 308.129H-4.15842H-4.67578Z" stroke="#40C8B7" stroke-width="1.5" stroke-linecap="round" stroke-linejoin="round"/>
<defs>
<linearGradient id="paint0_linear" x1="378.697" y1="0.780029" x2="378.697" y2="173.865" gradientUnits="userSpaceOnUse">
<stop stop-color="#E6F9F5"/>
<stop offset="1" stop-color="#E6F9F5" stop-opacity="0"/>
</linearGradient>
</defs>
</svg>
