<svg width="232" height="38" viewBox="0 0 232 38" fill="none" xmlns="http://www.w3.org/2000/svg">
<path fill-rule="evenodd" clip-rule="evenodd" d="M-1.65723 66.6745L-1.21397 26.7664C-1.05408 26.5897 -0.561527 26.4976 -0.11383 26.5607C0.0830376 26.5885 0.247593 26.6436 0.349115 26.7157C0.570215 26.8728 1.07208 26.9293 1.47006 26.8421C1.65302 26.802 1.79047 26.7359 1.85452 26.6572L2.95133 25.3105C3.22719 24.9718 4.14657 24.7855 5.00482 24.8944C5.52369 24.9602 5.92509 25.1239 6.07482 25.3307L6.5376 25.97C6.81591 26.3544 7.83119 26.577 8.80528 26.4672C9.19022 26.4237 9.52862 26.3318 9.76882 26.2054C10.2184 25.9688 11.0689 25.9209 11.6684 26.0983C11.9871 26.1926 12.1846 26.3374 12.2087 26.4943L12.3546 27.4446C12.3823 27.6248 12.7747 27.762 13.2312 27.751C13.6029 27.7422 13.9138 27.6364 13.9911 27.4927L14.1664 27.1664C14.3096 26.9001 14.9728 26.73 15.6476 26.7865C16.1183 26.8259 16.4898 26.9685 16.6027 27.1531C16.7697 27.4261 17.466 27.594 18.1579 27.5281C18.6343 27.4827 19.0042 27.3347 19.1124 27.146L21.7166 22.6066C21.8729 22.3343 22.5588 22.1635 23.2488 22.2252C23.5453 22.2517 23.8083 22.319 23.9907 22.4149C24.4012 22.6309 25.1776 22.6747 25.7249 22.5127C25.9687 22.4405 26.1366 22.3354 26.1964 22.2175L27.5506 19.5451C27.8012 19.0507 29.0198 18.7301 30.2726 18.829C31.0089 18.8871 31.6279 19.0826 31.9328 19.3534L33.5357 20.7767C33.8329 21.0407 34.616 21.1595 35.2848 21.0422C35.6177 20.9838 35.875 20.8739 35.9962 20.7384C36.2062 20.5036 36.8588 20.3804 37.4538 20.4633C37.7862 20.5096 38.0459 20.6139 38.1574 20.7459L41.1046 24.2354C41.6625 24.8959 43.4713 25.2528 45.1448 25.0326C46.2256 24.8905 47.0327 24.5318 47.2629 24.0915L48.2427 22.2176C48.4891 21.7463 49.657 21.4431 50.8513 21.5403C51.5587 21.5979 52.15 21.7885 52.4345 22.0505L53.8694 23.3718C54.2336 23.7072 55.2178 23.8626 56.0677 23.7188C56.4059 23.6616 56.6869 23.562 56.8673 23.4355C57.3149 23.1215 58.3227 23.0101 59.1183 23.1867C59.4399 23.2581 59.6918 23.3699 59.8337 23.5044L63.5562 27.0303C64.0094 27.4596 65.2587 27.6626 66.3465 27.4837C66.9489 27.3847 67.4033 27.1823 67.5799 26.9344L68.2297 26.0226C68.411 25.7682 69.0807 25.6199 69.7255 25.6915C70.0997 25.733 70.4007 25.8428 70.5351 25.9868C70.8094 26.2806 71.6353 26.431 72.3798 26.3228C72.7616 26.2672 73.0659 26.1504 73.217 26.0013L75.4581 23.7901C75.8926 23.3614 77.1255 23.1529 78.2117 23.3243C78.6262 23.3898 78.9777 23.5052 79.216 23.6541C79.7396 23.9813 80.8359 24.079 81.6649 23.8724C82.051 23.7761 82.3283 23.6248 82.4391 23.4499L83.4095 21.918C83.6562 21.5287 84.6559 21.2919 85.6425 21.3893C86.29 21.4532 86.7993 21.6504 86.9734 21.9047L87.8566 23.1944C88.1162 23.5734 89.1052 23.7977 90.0657 23.6952C90.4538 23.6538 90.7956 23.5624 91.0368 23.4355C91.7141 23.0791 92.9951 23.0069 93.898 23.2741C94.2053 23.3651 94.4414 23.4884 94.5793 23.6299L95.1002 24.1644C95.5502 24.6261 96.8632 24.8564 98.0331 24.6788C98.5616 24.5986 98.995 24.4433 99.2482 24.2434L100.575 23.1959C101.357 22.5788 102.027 21.9407 102.58 21.2862L103.703 19.9556C103.874 19.7536 104.427 19.6444 104.939 19.7117C105.146 19.7388 105.323 19.7923 105.443 19.8637C105.714 20.0239 106.263 20.0672 106.669 19.9604C106.852 19.9123 106.983 19.839 107.036 19.7548L109.343 16.1139C109.697 15.5546 111.133 15.2145 112.55 15.3544C113.527 15.4507 114.281 15.7577 114.494 16.1461L116.144 19.1512C116.341 19.5108 117.24 19.7391 118.151 19.6612C118.53 19.6288 118.869 19.5458 119.111 19.4263C120.122 18.9277 121.965 18.8469 123.228 19.2457C123.374 19.2916 123.508 19.3429 123.628 19.3988L125.576 20.301C126.728 20.8349 128.759 20.899 130.111 20.4442C130.653 20.262 131.027 20.0141 131.173 19.7392L132.04 18.1142C132.35 17.533 133.795 17.1611 135.268 17.2835C136.247 17.3648 137.034 17.6512 137.319 18.0297L138.007 18.9453C138.452 19.5361 140.025 19.8728 141.522 19.6974C142.53 19.5793 143.289 19.2503 143.492 18.8431C143.792 18.2406 145.273 17.8483 146.8 17.9668C147.829 18.0468 148.661 18.3459 148.958 18.7431L149.033 18.8431C149.393 19.3257 150.677 19.6014 151.9 19.459C152.799 19.3543 153.448 19.0454 153.543 18.6773L154.52 14.8745C154.64 14.4081 155.695 14.0684 156.877 14.1157C157.324 14.1336 157.746 14.2064 158.083 14.3237C159.533 14.8286 161.745 14.774 163.024 14.2018C163.162 14.1403 163.285 14.074 163.393 14.0038L165.057 12.9202C166.156 12.2049 168.516 11.9764 170.328 12.41C170.934 12.5549 171.426 12.7631 171.751 13.0116C172.361 13.4793 173.817 13.6632 175.002 13.4222C175.652 13.29 176.115 13.0486 176.262 12.7658L177.197 10.9573C177.451 10.4651 178.669 10.1476 179.916 10.248C180.628 10.3054 181.23 10.4922 181.54 10.7519C182.051 11.1803 183.345 11.3641 184.43 11.1625C185.074 11.0429 185.529 10.8063 185.647 10.5292L189.456 1.59751C189.632 1.18524 190.621 0.907294 191.666 0.976684C192.376 1.02381 192.959 1.22369 193.176 1.49436L195.03 3.80259C195.395 4.25594 195.815 4.70198 196.29 5.13911L197.239 6.01379C197.507 6.25977 198.228 6.37371 198.852 6.26829C199.238 6.203 199.512 6.06437 199.58 5.90077L200.424 3.85475C200.593 3.44316 201.577 3.16381 202.619 3.23081C203.268 3.27247 203.817 3.44251 204.073 3.68118L205.038 4.57869C205.507 5.01468 206.782 5.21818 207.887 5.03321C208.294 4.96501 208.639 4.84935 208.876 4.7017C209.323 4.42232 210.259 4.33888 210.967 4.51533C211.345 4.60952 211.598 4.76471 211.659 4.93944L212.349 6.91472C212.496 7.33442 212.689 7.75139 212.928 8.16446L215.77 13.0828C216.053 13.5723 217.288 13.8786 218.528 13.767C219.255 13.7016 219.856 13.5017 220.142 13.2303C220.586 12.8097 221.81 12.6109 222.876 12.7861C223.537 12.8948 224.011 13.1294 224.132 13.408L227.121 20.278C227.271 20.6227 228.101 20.8542 228.974 20.795C229.691 20.7464 230.235 20.5139 230.301 20.2281L230.944 17.4342C231.027 17.0781 233.405 16.7967 234.307 16.8291C234.836 16.8481 233.995 66.6745 234.262 66.8554" fill="url(#paint0_linear)"/>
<path d="M-1.65723 66.6745L-1.21397 26.7664C-1.05408 26.5897 -0.561527 26.4976 -0.11383 26.5607C0.0830377 26.5885 0.247593 26.6436 0.349115 26.7157C0.570215 26.8728 1.07208 26.9293 1.47006 26.8421C1.65302 26.802 1.79047 26.7359 1.85452 26.6572L2.95133 25.3105C3.22719 24.9718 4.14657 24.7855 5.00482 24.8944C5.52369 24.9602 5.92509 25.1239 6.07482 25.3307L6.5376 25.97C6.81591 26.3544 7.83119 26.577 8.80528 26.4672C9.19022 26.4238 9.52862 26.3318 9.76882 26.2054C10.2184 25.9688 11.0689 25.9209 11.6684 26.0983C11.9871 26.1926 12.1846 26.3374 12.2087 26.4943L12.3546 27.4446C12.3823 27.6248 12.7747 27.762 13.2312 27.751C13.6029 27.7422 13.9138 27.6364 13.9911 27.4927L14.1664 27.1664C14.3096 26.9001 14.9728 26.73 15.6476 26.7865C16.1183 26.8259 16.4898 26.9685 16.6027 27.1531C16.7697 27.4261 17.466 27.594 18.1579 27.5281C18.6343 27.4827 19.0042 27.3347 19.1124 27.146L21.7166 22.6066C21.8729 22.3343 22.5588 22.1636 23.2488 22.2252C23.5453 22.2517 23.8083 22.319 23.9907 22.4149C24.4012 22.6309 25.1776 22.6747 25.7249 22.5127C25.9687 22.4406 26.1366 22.3354 26.1964 22.2175L27.5506 19.5451C27.8012 19.0507 29.0198 18.7301 30.2726 18.829C31.0089 18.8871 31.6279 19.0826 31.9328 19.3534L33.5357 20.7767C33.8329 21.0407 34.616 21.1595 35.2848 21.0422C35.6177 20.9838 35.875 20.8739 35.9962 20.7384C36.2062 20.5036 36.8588 20.3804 37.4538 20.4633C37.7862 20.5096 38.0459 20.6139 38.1574 20.7459L41.1046 24.2354C41.6625 24.8959 43.4713 25.2528 45.1448 25.0326C46.2256 24.8905 47.0327 24.5318 47.2629 24.0915L48.2427 22.2176C48.4891 21.7463 49.657 21.4431 50.8513 21.5403C51.5587 21.5979 52.15 21.7885 52.4345 22.0505L53.8694 23.3718C54.2336 23.7072 55.2178 23.8626 56.0677 23.7188C56.4059 23.6616 56.6869 23.562 56.8673 23.4355C57.3149 23.1215 58.3227 23.0101 59.1183 23.1867C59.4399 23.2581 59.6918 23.3699 59.8337 23.5044L63.5562 27.0303C64.0094 27.4596 65.2587 27.6626 66.3465 27.4837C66.9489 27.3847 67.4033 27.1823 67.5799 26.9344L68.2297 26.0226C68.411 25.7682 69.0807 25.6199 69.7255 25.6915C70.0997 25.733 70.4007 25.8428 70.5351 25.9868C70.8094 26.2806 71.6353 26.431 72.3798 26.3228C72.7616 26.2672 73.0659 26.1504 73.217 26.0013L75.4581 23.7901C75.8926 23.3614 77.1255 23.1529 78.2117 23.3243C78.6262 23.3898 78.9777 23.5052 79.216 23.6541C79.7396 23.9813 80.8359 24.079 81.6649 23.8724C82.051 23.7761 82.3283 23.6248 82.4391 23.4499L83.4095 21.918C83.6562 21.5287 84.6559 21.2919 85.6425 21.3893C86.29 21.4532 86.7993 21.6504 86.9734 21.9047L87.8566 23.1944C88.1162 23.5734 89.1052 23.7977 90.0657 23.6952C90.4538 23.6538 90.7956 23.5624 91.0368 23.4355C91.7141 23.0791 92.9951 23.0069 93.898 23.2741C94.2053 23.3651 94.4414 23.4884 94.5793 23.6299L95.1002 24.1644C95.5502 24.6261 96.8632 24.8564 98.0331 24.6788C98.5616 24.5986 98.995 24.4433 99.2482 24.2434L100.575 23.1959C101.357 22.5788 102.027 21.9407 102.58 21.2862L103.703 19.9556C103.874 19.7536 104.427 19.6444 104.939 19.7117C105.146 19.7388 105.323 19.7923 105.443 19.8637C105.714 20.0239 106.263 20.0672 106.669 19.9604C106.852 19.9123 106.983 19.839 107.036 19.7548L109.343 16.1139C109.697 15.5546 111.133 15.2145 112.55 15.3544C113.527 15.4507 114.281 15.7577 114.494 16.1461L116.144 19.1512C116.341 19.5108 117.24 19.7391 118.151 19.6612C118.53 19.6288 118.869 19.5458 119.111 19.4263C120.122 18.9277 121.965 18.8469 123.228 19.2457C123.374 19.2916 123.508 19.3429 123.628 19.3988L125.576 20.301C126.728 20.8349 128.759 20.899 130.111 20.4442C130.653 20.262 131.027 20.0141 131.173 19.7392L132.04 18.1142C132.35 17.533 133.795 17.1611 135.268 17.2835C136.247 17.3648 137.034 17.6512 137.319 18.0297L138.007 18.9453C138.452 19.5361 140.025 19.8728 141.522 19.6974C142.53 19.5793 143.289 19.2503 143.492 18.8431C143.792 18.2406 145.273 17.8483 146.8 17.9668C147.829 18.0468 148.661 18.3459 148.958 18.7431L149.033 18.8431C149.393 19.3257 150.677 19.6014 151.9 19.459C152.799 19.3543 153.448 19.0454 153.543 18.6773L154.52 14.8745C154.64 14.4081 155.695 14.0684 156.877 14.1157C157.324 14.1336 157.746 14.2064 158.083 14.3237C159.533 14.8286 161.745 14.774 163.024 14.2018C163.162 14.1403 163.285 14.074 163.393 14.0038L165.057 12.9202C166.156 12.2049 168.516 11.9764 170.328 12.41C170.934 12.5549 171.426 12.7631 171.751 13.0116C172.361 13.4793 173.817 13.6632 175.002 13.4222C175.652 13.29 176.115 13.0486 176.262 12.7658L177.197 10.9573C177.451 10.4651 178.669 10.1476 179.916 10.248C180.628 10.3054 181.23 10.4922 181.54 10.7519C182.051 11.1803 183.345 11.3641 184.43 11.1625C185.074 11.0429 185.529 10.8063 185.647 10.5292L189.456 1.59751C189.632 1.18524 190.621 0.907294 191.666 0.976684C192.376 1.02381 192.959 1.22369 193.176 1.49436L195.03 3.80259C195.395 4.25594 195.815 4.70198 196.29 5.13911L197.239 6.01379C197.507 6.25977 198.228 6.37371 198.852 6.26829C199.238 6.203 199.512 6.06437 199.58 5.90077L200.424 3.85475C200.593 3.44316 201.577 3.16381 202.619 3.23081C203.268 3.27247 203.817 3.44251 204.073 3.68118L205.038 4.57869C205.507 5.01468 206.782 5.21818 207.887 5.03321C208.294 4.96501 208.639 4.84935 208.876 4.7017C209.323 4.42232 210.259 4.33888 210.967 4.51533C211.345 4.60952 211.598 4.76471 211.659 4.93944L212.349 6.91472C212.496 7.33442 212.689 7.75139 212.928 8.16446L215.77 13.0828C216.053 13.5723 217.288 13.8786 218.528 13.767C219.255 13.7016 219.856 13.5017 220.142 13.2303C220.586 12.8097 221.81 12.6109 222.876 12.7861C223.537 12.8948 224.011 13.1294 224.132 13.408L227.121 20.278C227.271 20.6227 228.101 20.8542 228.974 20.795C229.691 20.7464 230.235 20.5139 230.301 20.2281L230.944 17.4342C231.027 17.0781 233.405 16.7967 234.307 16.8291C234.836 16.8481 233.995 66.6745 234.262 66.8554L233.995 66.6745H-1.49789H-1.65723Z" stroke="#40C8B7" stroke-width="1.5" stroke-linecap="round" stroke-linejoin="round"/>
<defs>
<linearGradient id="paint0_linear" x1="116.414" y1="0.966064" x2="116.414" y2="37.97" gradientUnits="userSpaceOnUse">
<stop stop-color="#03C79F" stop-opacity="0.3"/>
<stop offset="1" stop-color="#E6F9F5" stop-opacity="0"/>
</linearGradient>
</defs>
</svg>
