<svg width="312" height="50" viewBox="0 0 312 50" fill="none" xmlns="http://www.w3.org/2000/svg">
<rect width="312" height="40" rx="12" fill="#F5F8FB"/>
<path d="M126.332 25V16.166H123.406V15.2H130.434V16.166H127.508V25H126.332ZM133.406 25.168C132.753 25.168 132.165 25.0187 131.642 24.72C131.12 24.4213 130.704 24.0013 130.396 23.46C130.098 22.9093 129.948 22.2653 129.948 21.528C129.948 20.7907 130.102 20.1513 130.41 19.61C130.718 19.0593 131.134 18.6347 131.656 18.336C132.188 18.0373 132.781 17.888 133.434 17.888C134.088 17.888 134.676 18.0373 135.198 18.336C135.721 18.6347 136.132 19.0593 136.43 19.61C136.738 20.1513 136.892 20.7907 136.892 21.528C136.892 22.2653 136.738 22.9093 136.43 23.46C136.122 24.0013 135.702 24.4213 135.17 24.72C134.648 25.0187 134.06 25.168 133.406 25.168ZM133.406 24.16C133.808 24.16 134.181 24.062 134.526 23.866C134.872 23.67 135.152 23.376 135.366 22.984C135.581 22.592 135.688 22.1067 135.688 21.528C135.688 20.9493 135.581 20.464 135.366 20.072C135.161 19.68 134.886 19.386 134.54 19.19C134.195 18.994 133.826 18.896 133.434 18.896C133.033 18.896 132.66 18.994 132.314 19.19C131.969 19.386 131.689 19.68 131.474 20.072C131.26 20.464 131.152 20.9493 131.152 21.528C131.152 22.1067 131.26 22.592 131.474 22.984C131.689 23.376 131.964 23.67 132.3 23.866C132.646 24.062 133.014 24.16 133.406 24.16ZM138.227 28.08V18.056H139.291L139.403 19.204C139.627 18.868 139.945 18.5647 140.355 18.294C140.775 18.0233 141.307 17.888 141.951 17.888C142.642 17.888 143.244 18.0467 143.757 18.364C144.271 18.6813 144.667 19.1153 144.947 19.666C145.237 20.2167 145.381 20.842 145.381 21.542C145.381 22.242 145.237 22.8673 144.947 23.418C144.667 23.9593 144.266 24.3887 143.743 24.706C143.23 25.014 142.628 25.168 141.937 25.168C141.368 25.168 140.859 25.0513 140.411 24.818C139.973 24.5847 139.637 24.258 139.403 23.838V28.08H138.227ZM141.811 24.146C142.278 24.146 142.689 24.0387 143.043 23.824C143.398 23.6 143.678 23.292 143.883 22.9C144.089 22.508 144.191 22.0507 144.191 21.528C144.191 21.0053 144.089 20.548 143.883 20.156C143.678 19.764 143.398 19.4607 143.043 19.246C142.689 19.022 142.278 18.91 141.811 18.91C141.345 18.91 140.934 19.022 140.579 19.246C140.225 19.4607 139.945 19.764 139.739 20.156C139.534 20.548 139.431 21.0053 139.431 21.528C139.431 22.0507 139.534 22.508 139.739 22.9C139.945 23.292 140.225 23.6 140.579 23.824C140.934 24.0387 141.345 24.146 141.811 24.146ZM152.433 25.168C151.855 25.168 151.374 25.07 150.991 24.874C150.609 24.678 150.324 24.4167 150.137 24.09C149.951 23.7633 149.857 23.4087 149.857 23.026C149.857 22.3167 150.128 21.7707 150.669 21.388C151.211 21.0053 151.948 20.814 152.881 20.814H154.757V20.73C154.757 20.1233 154.599 19.666 154.281 19.358C153.964 19.0407 153.539 18.882 153.007 18.882C152.55 18.882 152.153 18.9987 151.817 19.232C151.491 19.456 151.285 19.7873 151.201 20.226H149.997C150.044 19.722 150.212 19.2973 150.501 18.952C150.8 18.6067 151.169 18.3453 151.607 18.168C152.046 17.9813 152.513 17.888 153.007 17.888C153.978 17.888 154.706 18.1493 155.191 18.672C155.686 19.1853 155.933 19.8713 155.933 20.73V25H154.883L154.813 23.754C154.617 24.146 154.328 24.482 153.945 24.762C153.572 25.0327 153.068 25.168 152.433 25.168ZM152.615 24.174C153.063 24.174 153.446 24.0573 153.763 23.824C154.09 23.5907 154.337 23.2873 154.505 22.914C154.673 22.5407 154.757 22.1487 154.757 21.738V21.724H152.979C152.289 21.724 151.799 21.8453 151.509 22.088C151.229 22.3213 151.089 22.6153 151.089 22.97C151.089 23.334 151.22 23.628 151.481 23.852C151.752 24.0667 152.13 24.174 152.615 24.174ZM157.398 25V14.92H158.574V25H157.398ZM163.323 25.168C162.66 25.168 162.072 25.0187 161.559 24.72C161.046 24.412 160.64 23.9873 160.341 23.446C160.052 22.9047 159.907 22.2653 159.907 21.528C159.907 20.8 160.052 20.1653 160.341 19.624C160.63 19.0733 161.032 18.6487 161.545 18.35C162.068 18.042 162.67 17.888 163.351 17.888C164.023 17.888 164.602 18.042 165.087 18.35C165.582 18.6487 165.96 19.0453 166.221 19.54C166.482 20.0347 166.613 20.5667 166.613 21.136C166.613 21.2387 166.608 21.3413 166.599 21.444C166.599 21.5467 166.599 21.6633 166.599 21.794H161.069C161.097 22.326 161.218 22.7693 161.433 23.124C161.657 23.4693 161.932 23.7307 162.259 23.908C162.595 24.0853 162.95 24.174 163.323 24.174C163.808 24.174 164.214 24.062 164.541 23.838C164.868 23.614 165.106 23.3107 165.255 22.928H166.417C166.23 23.572 165.871 24.1087 165.339 24.538C164.816 24.958 164.144 25.168 163.323 25.168ZM163.323 18.882C162.763 18.882 162.264 19.0547 161.825 19.4C161.396 19.736 161.148 20.2307 161.083 20.884H165.451C165.423 20.2587 165.208 19.7687 164.807 19.414C164.406 19.0593 163.911 18.882 163.323 18.882ZM167.872 25V18.056H168.936L169.034 19.386C169.249 18.9287 169.575 18.5647 170.014 18.294C170.453 18.0233 170.994 17.888 171.638 17.888V19.12H171.316C170.905 19.12 170.527 19.1947 170.182 19.344C169.837 19.484 169.561 19.7267 169.356 20.072C169.151 20.4173 169.048 20.8933 169.048 21.5V25H167.872ZM175.402 25C174.767 25 174.268 24.846 173.904 24.538C173.54 24.23 173.358 23.6747 173.358 22.872V19.05H172.154V18.056H173.358L173.512 16.39H174.534V18.056H176.578V19.05H174.534V22.872C174.534 23.3107 174.622 23.6093 174.8 23.768C174.977 23.9173 175.29 23.992 175.738 23.992H176.466V25H175.402ZM180.432 25.168C179.601 25.168 178.911 24.958 178.36 24.538C177.809 24.118 177.487 23.5487 177.394 22.83H178.598C178.673 23.194 178.864 23.5113 179.172 23.782C179.489 24.0433 179.914 24.174 180.446 24.174C180.941 24.174 181.305 24.0713 181.538 23.866C181.771 23.6513 181.888 23.3993 181.888 23.11C181.888 22.69 181.734 22.41 181.426 22.27C181.127 22.13 180.703 22.004 180.152 21.892C179.779 21.8173 179.405 21.71 179.032 21.57C178.659 21.43 178.346 21.234 178.094 20.982C177.842 20.7207 177.716 20.38 177.716 19.96C177.716 19.3533 177.94 18.8587 178.388 18.476C178.845 18.084 179.461 17.888 180.236 17.888C180.973 17.888 181.575 18.0747 182.042 18.448C182.518 18.812 182.793 19.3347 182.868 20.016H181.706C181.659 19.6613 181.505 19.386 181.244 19.19C180.992 18.9847 180.651 18.882 180.222 18.882C179.802 18.882 179.475 18.9707 179.242 19.148C179.018 19.3253 178.906 19.5587 178.906 19.848C178.906 20.128 179.051 20.3473 179.34 20.506C179.639 20.6647 180.04 20.8 180.544 20.912C180.973 21.0053 181.379 21.122 181.762 21.262C182.154 21.3927 182.471 21.5933 182.714 21.864C182.966 22.1253 183.092 22.508 183.092 23.012C183.101 23.6373 182.863 24.1553 182.378 24.566C181.902 24.9673 181.253 25.168 180.432 25.168Z" fill="#A2B1C3"/>
<path d="M232.036 25V15.2H238V16.166H233.212V19.61H237.286V20.562H233.212V25H232.036ZM242.008 25.168C241.354 25.168 240.766 25.0187 240.244 24.72C239.721 24.4213 239.306 24.0013 238.998 23.46C238.699 22.9093 238.55 22.2653 238.55 21.528C238.55 20.7907 238.704 20.1513 239.012 19.61C239.32 19.0593 239.735 18.6347 240.258 18.336C240.79 18.0373 241.382 17.888 242.036 17.888C242.689 17.888 243.277 18.0373 243.8 18.336C244.322 18.6347 244.733 19.0593 245.032 19.61C245.34 20.1513 245.494 20.7907 245.494 21.528C245.494 22.2653 245.34 22.9093 245.032 23.46C244.724 24.0013 244.304 24.4213 243.772 24.72C243.249 25.0187 242.661 25.168 242.008 25.168ZM242.008 24.16C242.409 24.16 242.782 24.062 243.128 23.866C243.473 23.67 243.753 23.376 243.968 22.984C244.182 22.592 244.29 22.1067 244.29 21.528C244.29 20.9493 244.182 20.464 243.968 20.072C243.762 19.68 243.487 19.386 243.142 19.19C242.796 18.994 242.428 18.896 242.036 18.896C241.634 18.896 241.261 18.994 240.916 19.19C240.57 19.386 240.29 19.68 240.076 20.072C239.861 20.464 239.754 20.9493 239.754 21.528C239.754 22.1067 239.861 22.592 240.076 22.984C240.29 23.376 240.566 23.67 240.902 23.866C241.247 24.062 241.616 24.16 242.008 24.16ZM246.829 25V14.92H248.005V25H246.829ZM249.632 25V14.92H250.808V25H249.632ZM255.6 25.168C254.947 25.168 254.359 25.0187 253.836 24.72C253.313 24.4213 252.898 24.0013 252.59 23.46C252.291 22.9093 252.142 22.2653 252.142 21.528C252.142 20.7907 252.296 20.1513 252.604 19.61C252.912 19.0593 253.327 18.6347 253.85 18.336C254.382 18.0373 254.975 17.888 255.628 17.888C256.281 17.888 256.869 18.0373 257.392 18.336C257.915 18.6347 258.325 19.0593 258.624 19.61C258.932 20.1513 259.086 20.7907 259.086 21.528C259.086 22.2653 258.932 22.9093 258.624 23.46C258.316 24.0013 257.896 24.4213 257.364 24.72C256.841 25.0187 256.253 25.168 255.6 25.168ZM255.6 24.16C256.001 24.16 256.375 24.062 256.72 23.866C257.065 23.67 257.345 23.376 257.56 22.984C257.775 22.592 257.882 22.1067 257.882 21.528C257.882 20.9493 257.775 20.464 257.56 20.072C257.355 19.68 257.079 19.386 256.734 19.19C256.389 18.994 256.02 18.896 255.628 18.896C255.227 18.896 254.853 18.994 254.508 19.19C254.163 19.386 253.883 19.68 253.668 20.072C253.453 20.464 253.346 20.9493 253.346 21.528C253.346 22.1067 253.453 22.592 253.668 22.984C253.883 23.376 254.158 23.67 254.494 23.866C254.839 24.062 255.208 24.16 255.6 24.16ZM261.561 25L259.531 18.056H260.707L262.177 23.502L263.801 18.056H265.131L266.769 23.502L268.225 18.056H269.415L267.385 25H266.181L264.473 19.274L262.765 25H261.561ZM271.13 16.516C270.897 16.516 270.701 16.4413 270.542 16.292C270.393 16.1333 270.318 15.9373 270.318 15.704C270.318 15.48 270.393 15.2933 270.542 15.144C270.701 14.9947 270.897 14.92 271.13 14.92C271.354 14.92 271.545 14.9947 271.704 15.144C271.863 15.2933 271.942 15.48 271.942 15.704C271.942 15.9373 271.863 16.1333 271.704 16.292C271.545 16.4413 271.354 16.516 271.13 16.516ZM270.542 25V18.056H271.718V25H270.542ZM273.466 25V18.056H274.53L274.6 19.302C274.824 18.8633 275.146 18.518 275.566 18.266C275.986 18.014 276.462 17.888 276.994 17.888C277.815 17.888 278.468 18.14 278.954 18.644C279.448 19.1387 279.696 19.904 279.696 20.94V25H278.52V21.066C278.52 19.6193 277.922 18.896 276.728 18.896C276.13 18.896 275.631 19.1153 275.23 19.554C274.838 19.9833 274.642 20.5993 274.642 21.402V25H273.466ZM283.921 22.816C283.529 22.816 283.17 22.7647 282.843 22.662L282.143 23.32C282.246 23.3947 282.372 23.46 282.521 23.516C282.68 23.5627 282.904 23.6093 283.193 23.656C283.483 23.6933 283.889 23.7353 284.411 23.782C285.345 23.8473 286.012 24.062 286.413 24.426C286.815 24.79 287.015 25.266 287.015 25.854C287.015 26.2553 286.903 26.638 286.679 27.002C286.465 27.366 286.129 27.6647 285.671 27.898C285.223 28.1313 284.645 28.248 283.935 28.248C283.31 28.248 282.755 28.164 282.269 27.996C281.784 27.8373 281.406 27.59 281.135 27.254C280.865 26.9273 280.729 26.512 280.729 26.008C280.729 25.7467 280.799 25.462 280.939 25.154C281.079 24.8553 281.341 24.5707 281.723 24.3C281.518 24.216 281.341 24.1273 281.191 24.034C281.051 23.9313 280.921 23.8193 280.799 23.698V23.376L281.989 22.2C281.439 21.7333 281.163 21.1173 281.163 20.352C281.163 19.8947 281.271 19.4793 281.485 19.106C281.7 18.7327 282.013 18.4387 282.423 18.224C282.834 18 283.333 17.888 283.921 17.888C284.323 17.888 284.687 17.944 285.013 18.056H287.575V18.938L286.273 18.994C286.544 19.386 286.679 19.8387 286.679 20.352C286.679 20.8093 286.567 21.2247 286.343 21.598C286.129 21.9713 285.816 22.27 285.405 22.494C285.004 22.7087 284.509 22.816 283.921 22.816ZM283.921 21.85C284.416 21.85 284.808 21.724 285.097 21.472C285.396 21.2107 285.545 20.8373 285.545 20.352C285.545 19.876 285.396 19.512 285.097 19.26C284.808 18.9987 284.416 18.868 283.921 18.868C283.417 18.868 283.016 18.9987 282.717 19.26C282.428 19.512 282.283 19.876 282.283 20.352C282.283 20.8373 282.428 21.2107 282.717 21.472C283.016 21.724 283.417 21.85 283.921 21.85ZM281.877 25.896C281.877 26.3627 282.073 26.708 282.465 26.932C282.857 27.1653 283.347 27.282 283.935 27.282C284.514 27.282 284.976 27.156 285.321 26.904C285.676 26.652 285.853 26.316 285.853 25.896C285.853 25.5973 285.732 25.336 285.489 25.112C285.247 24.8973 284.799 24.7713 284.145 24.734C283.632 24.6967 283.189 24.65 282.815 24.594C282.433 24.7993 282.181 25.0187 282.059 25.252C281.938 25.4947 281.877 25.7093 281.877 25.896Z" fill="#A2B1C3"/>
<rect x="101.25" y="0.25" width="0.5" height="39.5" rx="0.25" stroke="#E6EDF4" stroke-width="0.5"/>
<rect x="205.25" y="0.25" width="0.5" height="39.5" rx="0.25" stroke="#E6EDF4" stroke-width="0.5"/>
<g filter="url(#filter0_d)">
<rect x="10" y="4" width="83" height="32" rx="8" fill="white"/>
</g>
<path d="M44.091 25L45.0257 22.3054H49.0029L49.9326 25H51.5633L47.8992 14.8182H46.1244L42.4603 25H44.091ZM45.4731 21.0128L46.9745 16.6676H47.0541L48.5555 21.0128H45.4731ZM54.4008 14.8182H52.9143V25H54.4008V14.8182ZM57.8872 14.8182H56.4007V25H57.8872V14.8182Z" fill="#435274"/>
<defs>
<filter id="filter0_d" x="2" y="2" width="99" height="48" filterUnits="userSpaceOnUse" color-interpolation-filters="sRGB">
<feFlood flood-opacity="0" result="BackgroundImageFix"/>
<feColorMatrix in="SourceAlpha" type="matrix" values="0 0 0 0 0 0 0 0 0 0 0 0 0 0 0 0 0 0 127 0"/>
<feMorphology radius="8" operator="erode" in="SourceAlpha" result="effect1_dropShadow"/>
<feOffset dy="6"/>
<feGaussianBlur stdDeviation="8"/>
<feColorMatrix type="matrix" values="0 0 0 0 0 0 0 0 0 0 0 0 0 0 0 0 0 0 0.16 0"/>
<feBlend mode="normal" in2="BackgroundImageFix" result="effect1_dropShadow"/>
<feBlend mode="normal" in="SourceGraphic" in2="effect1_dropShadow" result="shape"/>
</filter>
</defs>
</svg>
