<svg width="234" height="28" viewBox="0 0 234 28" fill="none" xmlns="http://www.w3.org/2000/svg">
<path opacity="0.16" d="M233 26.3482L232.72 26.0437C232.563 25.8721 232.078 25.7828 231.636 25.844C231.443 25.871 231.28 25.9244 231.18 25.9944C230.963 26.1469 230.468 26.2018 230.076 26.1171C229.896 26.0782 229.76 26.014 229.697 25.9377L228.617 24.6305C228.345 24.3017 227.439 24.1208 226.594 24.2265C226.083 24.2904 225.687 24.4493 225.54 24.6501L225.084 25.2706C224.81 25.6437 223.809 25.8598 222.85 25.7532C222.47 25.711 222.137 25.6218 221.9 25.4991C221.457 25.2695 220.62 25.2229 220.029 25.3952C219.715 25.4867 219.52 25.6273 219.497 25.7796L219.353 26.702C219.326 26.8768 218.939 27.01 218.489 26.9994C218.123 26.9908 217.817 26.8882 217.741 26.7486L217.568 26.4319C217.427 26.1734 216.774 26.0083 216.109 26.0631C215.645 26.1014 215.279 26.2398 215.168 26.419C215.003 26.684 214.317 26.847 213.636 26.783C213.166 26.739 212.802 26.5952 212.695 26.4121L210.13 22.0059C209.976 21.7415 209.3 21.5758 208.62 21.6356C208.328 21.6614 208.069 21.7266 207.889 21.8198C207.485 22.0295 206.72 22.072 206.181 21.9147C205.941 21.8447 205.775 21.7426 205.716 21.6281L204.382 19.0342C204.135 18.5543 202.935 18.243 201.701 18.339C200.975 18.3954 200.366 18.5852 200.065 18.8481L198.486 20.2296C198.193 20.4858 197.422 20.6012 196.763 20.4874C196.435 20.4307 196.181 20.324 196.062 20.1924C195.855 19.9645 195.212 19.8449 194.626 19.9254C194.298 19.9703 194.043 20.0716 193.933 20.1997L191.029 23.5869C190.48 24.228 188.698 24.5744 187.049 24.3607C185.984 24.2227 185.189 23.8746 184.962 23.4472L183.997 21.6283C183.754 21.1708 182.604 20.8764 181.427 20.9708C180.73 21.0268 180.148 21.2117 179.867 21.466L178.454 22.7486C178.095 23.0742 177.125 23.225 176.288 23.0855C175.955 23.0299 175.678 22.9333 175.5 22.8104C175.059 22.5056 174.067 22.3975 173.283 22.5689C172.966 22.6382 172.718 22.7468 172.578 22.8773L168.911 26.2998C168.464 26.7165 167.233 26.9136 166.162 26.7399C165.568 26.6438 165.121 26.4473 164.947 26.2067L164.307 25.3217C164.128 25.0747 163.468 24.9308 162.833 25.0002C162.464 25.0405 162.168 25.1471 162.035 25.2869C161.765 25.5721 160.951 25.7181 160.218 25.613C159.842 25.5591 159.542 25.4457 159.393 25.301L157.185 23.1546C156.757 22.7385 155.543 22.5361 154.473 22.7025C154.064 22.766 153.718 22.8781 153.483 23.0227C152.967 23.3402 151.887 23.4351 151.071 23.2345C150.69 23.1411 150.417 22.9942 150.308 22.8245L149.352 21.3375C149.109 20.9595 148.124 20.7297 147.152 20.8242C146.514 20.8862 146.012 21.0777 145.841 21.3245L144.971 22.5764C144.715 22.9443 143.741 23.162 142.794 23.0625C142.412 23.0224 142.075 22.9336 141.838 22.8104C141.17 22.4645 139.908 22.3944 139.019 22.6538C138.716 22.7421 138.484 22.8618 138.348 22.9991L137.835 23.518C137.391 23.9661 136.098 24.1897 134.945 24.0173C134.425 23.9394 133.998 23.7887 133.748 23.5947L132.441 22.5778C131.67 21.9789 131.011 21.3595 130.466 20.7242L129.359 19.4326C129.191 19.2365 128.646 19.1305 128.141 19.1959C127.938 19.2222 127.763 19.2741 127.645 19.3433C127.378 19.4989 126.837 19.541 126.437 19.4372C126.257 19.3905 126.128 19.3194 126.076 19.2377L123.803 15.7036C123.454 15.1607 122.04 14.8306 120.643 14.9663C119.681 15.0599 118.939 15.3578 118.729 15.7348L117.103 18.6518C116.909 19.0008 116.024 19.2224 115.126 19.1468C114.753 19.1154 114.418 19.0348 114.18 18.9188C113.184 18.4349 111.368 18.3564 110.124 18.7436C109.98 18.7881 109.848 18.8379 109.729 18.8921L107.811 19.7679C106.676 20.2861 104.675 20.3483 103.343 19.9069C102.809 19.7301 102.441 19.4894 102.296 19.2225L101.442 17.6452C101.137 17.0811 99.7133 16.7201 98.2626 16.8388C97.2983 16.9178 96.5228 17.1958 96.2423 17.5632L95.5638 18.4519C95.126 19.0254 93.5757 19.3522 92.101 19.182C91.1081 19.0674 90.3607 18.7479 90.1608 18.3528C89.8649 17.7679 88.4058 17.3871 86.9019 17.5021C85.8876 17.5797 85.0682 17.8701 84.7757 18.2556L84.702 18.3528C84.3465 18.8211 83.0819 19.0888 81.8774 18.9506C80.9916 18.8489 80.3518 18.5491 80.2586 18.1918L79.2956 14.5005C79.1775 14.0478 78.138 13.7181 76.9738 13.764C76.5333 13.7814 76.1179 13.852 75.7859 13.9659C74.3576 14.4559 72.178 14.403 70.9178 13.8476C70.7822 13.7878 70.6606 13.7235 70.5544 13.6554L68.9151 12.6036C67.8328 11.9092 65.5079 11.6874 63.7222 12.1083C63.1254 12.2489 62.6404 12.451 62.3208 12.6923C61.7193 13.1463 60.2853 13.3247 59.1178 13.0908C58.4772 12.9625 58.0209 12.7282 57.8768 12.4537L56.9554 10.6982C56.7047 10.2205 55.5056 9.91226 54.2771 10.0098C53.5751 10.0655 52.9819 10.2468 52.6769 10.4988C52.1737 10.9146 50.8989 11.0931 49.8296 10.8974C49.195 10.7813 48.747 10.5516 48.6306 10.2826L44.8779 1.61292C44.7046 1.21275 43.73 0.942953 42.7009 1.01031C42.0019 1.05606 41.4276 1.25007 41.2133 1.5128L39.3864 3.75333C39.0276 4.19338 38.6136 4.62634 38.1459 5.05065L37.2102 5.89968C36.947 6.13844 36.236 6.24904 35.6219 6.14672C35.2416 6.08334 34.971 5.94877 34.9046 5.78997L34.0731 3.80397C33.9059 3.40444 32.9374 3.13329 31.9099 3.19833C31.2712 3.23876 30.7304 3.40381 30.4776 3.63548L29.5272 4.50667C29.0654 4.92988 27.8089 5.12741 26.7205 4.94786C26.3192 4.88166 25.9794 4.76939 25.7467 4.62607C25.3062 4.35489 24.3838 4.27389 23.6864 4.44517C23.3141 4.53659 23.0646 4.68723 23.0044 4.85684L22.3243 6.77419C22.1798 7.18157 21.9897 7.58632 21.7545 7.98727L18.9544 12.7614C18.6757 13.2365 17.4592 13.5339 16.2373 13.4255C15.5217 13.362 14.9293 13.168 14.6471 12.9045C14.2096 12.4963 13.004 12.3033 11.9542 12.4734C11.303 12.5789 10.836 12.8066 10.7166 13.077L7.77183 19.7455C7.62406 20.0801 6.80666 20.3048 5.94612 20.2474C5.24026 20.2002 4.70405 19.9745 4.63921 19.6971L4.00517 16.9851C3.92436 16.6395 3.13834 16.3848 2.24953 16.4162C1.72893 16.4346 1.26339 16.5498 0.999991 16.7254" stroke="#A2B1C3" stroke-width="2" stroke-linecap="round" stroke-linejoin="round"/>
</svg>
