<svg width="231" height="35" viewBox="0 0 231 35" fill="none" xmlns="http://www.w3.org/2000/svg">
<path fill-rule="evenodd" clip-rule="evenodd" d="M231.648 66.4801L231.211 26.572C231.053 26.3953 230.567 26.3032 230.125 26.3664C229.93 26.3941 229.768 26.4492 229.668 26.5213C229.449 26.6784 228.954 26.735 228.561 26.6477C228.38 26.6076 228.245 26.5415 228.182 26.4629L227.099 25.1162C226.826 24.7774 225.919 24.5911 225.071 24.7C224.559 24.7658 224.163 24.9295 224.015 25.1363L223.558 25.7756C223.283 26.16 222.281 26.3826 221.319 26.2728C220.939 26.2294 220.605 26.1374 220.368 26.011C219.924 25.7744 219.085 25.7265 218.493 25.9039C218.178 25.9982 217.983 26.143 217.96 26.2999L217.815 27.2502C217.788 27.4304 217.401 27.5676 216.95 27.5567C216.583 27.5478 216.276 27.442 216.2 27.2983L216.027 26.972C215.885 26.7057 215.231 26.5356 214.564 26.5921C214.1 26.6315 213.733 26.7741 213.622 26.9587C213.457 27.2317 212.769 27.3996 212.086 27.3337C211.616 27.2884 211.251 27.1403 211.144 26.9516L208.573 22.4122C208.419 22.1399 207.742 21.9692 207.06 22.0308C206.768 22.0573 206.508 22.1246 206.328 22.2205C205.923 22.4365 205.156 22.4803 204.616 22.3183C204.375 22.2462 204.209 22.141 204.15 22.0231L202.813 19.3507C202.566 18.8563 201.363 18.5357 200.126 18.6346C199.399 18.6927 198.788 18.8882 198.487 19.159L196.905 20.5823C196.611 20.8463 195.838 20.9651 195.178 20.8478C194.849 20.7894 194.595 20.6796 194.476 20.544C194.268 20.3092 193.624 20.186 193.037 20.2689C192.709 20.3152 192.452 20.4195 192.342 20.5515L189.432 24.041C188.882 24.7015 187.096 25.0584 185.444 24.8382C184.377 24.6961 183.58 24.3375 183.353 23.8971L182.386 22.0232C182.142 21.5519 180.989 21.2487 179.81 21.3459C179.112 21.4035 178.528 21.5941 178.247 21.8561L176.831 23.1774C176.471 23.5128 175.499 23.6682 174.66 23.5244C174.327 23.4672 174.049 23.3676 173.871 23.2411C173.429 22.9271 172.434 22.8157 171.649 22.9923C171.331 23.0637 171.083 23.1755 170.942 23.31L167.268 26.8359C166.82 27.2652 165.587 27.4682 164.513 27.2893C163.918 27.1903 163.47 26.9879 163.295 26.74L162.654 25.8282C162.475 25.5738 161.814 25.4255 161.177 25.4971C160.808 25.5386 160.51 25.6484 160.378 25.7924C160.107 26.0862 159.292 26.2366 158.557 26.1284C158.18 26.0728 157.879 25.956 157.73 25.8069L155.518 23.5957C155.089 23.167 153.871 22.9585 152.799 23.1299C152.39 23.1954 152.043 23.3108 151.808 23.4597C151.291 23.7869 150.208 23.8846 149.39 23.678C149.009 23.5817 148.735 23.4304 148.626 23.2556L147.668 21.7236C147.424 21.3343 146.437 21.0975 145.463 21.1949C144.824 21.2588 144.321 21.456 144.149 21.7103L143.277 23C143.021 23.379 142.045 23.6033 141.096 23.5008C140.713 23.4594 140.376 23.368 140.138 23.2411C139.469 22.8847 138.204 22.8125 137.313 23.0797C137.01 23.1707 136.777 23.294 136.64 23.4355L136.126 23.97C135.682 24.4317 134.386 24.662 133.231 24.4844C132.709 24.4042 132.281 24.2489 132.031 24.049L130.721 23.0015C129.949 22.3844 129.288 21.7463 128.742 21.0918L127.633 19.7612C127.464 19.5592 126.918 19.45 126.413 19.5173C126.209 19.5444 126.034 19.5979 125.915 19.6693C125.648 19.8295 125.106 19.8728 124.705 19.766C124.524 19.7179 124.395 19.6446 124.343 19.5604L122.066 15.9195C121.716 15.3602 120.298 15.0201 118.899 15.16C117.935 15.2563 117.191 15.5633 116.98 15.9517L115.351 18.9568C115.157 19.3164 114.269 19.5447 113.37 19.4668C112.996 19.4344 112.661 19.3514 112.422 19.2319C111.424 18.7333 109.604 18.6525 108.357 19.0514C108.214 19.0972 108.081 19.1485 107.962 19.2044L106.04 20.1066C104.902 20.6405 102.897 20.7046 101.562 20.2498C101.027 20.0676 100.658 19.8197 100.513 19.5448L99.6577 17.9198C99.3517 17.3386 97.9251 16.9667 96.4713 17.0891C95.505 17.1704 94.7278 17.4568 94.4468 17.8353L93.7668 18.7509C93.3281 19.3417 91.7745 19.6784 90.2968 19.503C89.3018 19.3849 88.5528 19.0559 88.3525 18.6487C88.056 18.0462 86.5939 17.6539 85.0867 17.7724C84.0703 17.8524 83.2493 18.1515 82.9561 18.5487L82.8822 18.6487C82.526 19.1313 81.2588 19.407 80.0517 19.2646C79.164 19.1599 78.523 18.851 78.4296 18.4829L77.4645 14.6801C77.3462 14.2137 76.3045 13.874 75.1379 13.9213C74.6965 13.9392 74.2802 14.012 73.9474 14.1293C72.5161 14.6342 70.3321 14.5796 69.0691 14.0074C68.9333 13.9459 68.8114 13.8796 68.705 13.8094L67.0622 12.7258C65.9777 12.0105 63.6479 11.782 61.8585 12.2156C61.2605 12.3605 60.7744 12.5687 60.4541 12.8172C59.8514 13.2849 58.4144 13.4688 57.2444 13.2278C56.6025 13.0956 56.1452 12.8542 56.0008 12.5714L55.0775 10.7629C54.8263 10.2708 53.6246 9.95321 52.3936 10.0536C51.6901 10.111 51.0957 10.2978 50.79 10.5575C50.2857 10.9859 49.0083 11.1697 47.9368 10.9681C47.3008 10.8485 46.8519 10.6119 46.7352 10.3348L42.9747 1.40311C42.8011 0.990848 41.8244 0.712897 40.7931 0.782287C40.0927 0.829418 39.5171 1.02929 39.3024 1.29996L37.4717 3.60819C37.1121 4.06154 36.6972 4.50758 36.2286 4.94471L35.2909 5.81939C35.0272 6.06537 34.3146 6.17931 33.6993 6.07389C33.3182 6.0086 33.0471 5.86997 32.9805 5.70637L32.1473 3.66036C31.9797 3.24876 31.0091 2.96941 29.9796 3.03642C29.3394 3.07807 28.7975 3.24811 28.5443 3.48678L27.5918 4.38429C27.1291 4.82029 25.8699 5.02378 24.7793 4.83882C24.3771 4.77061 24.0366 4.65495 23.8033 4.5073C23.362 4.22792 22.4376 4.14448 21.7388 4.32093C21.3657 4.41512 21.1156 4.57031 21.0554 4.74504L20.3738 6.72032C20.229 7.14002 20.0385 7.55699 19.8029 7.97006L16.9967 12.8884C16.7174 13.3779 15.4984 13.6842 14.2738 13.5726C13.5568 13.5072 12.9632 13.3073 12.6803 13.0359C12.242 12.6153 11.0338 12.4165 9.98177 12.5917C9.32922 12.7004 8.8613 12.9351 8.74165 13.2136L5.79068 20.0836C5.64259 20.4283 4.82347 20.6598 3.96112 20.6006C3.25378 20.552 2.71645 20.3195 2.65147 20.0337L2.0161 17.2398C1.93513 16.8837 -0.413162 16.6023 -1.30385 16.6347C-1.82553 16.6537 -0.995377 66.4801 -1.25932 66.661" fill="url(#paint0_linear)"/>
<path d="M231.648 66.4801L231.211 26.572C231.053 26.3953 230.567 26.3032 230.125 26.3663C229.93 26.3941 229.768 26.4492 229.668 26.5213C229.449 26.6784 228.954 26.735 228.561 26.6477C228.38 26.6076 228.245 26.5415 228.182 26.4629L227.099 25.1162C226.826 24.7774 225.919 24.5911 225.071 24.7C224.559 24.7658 224.163 24.9295 224.015 25.1363L223.558 25.7756C223.283 26.16 222.281 26.3826 221.319 26.2728C220.939 26.2294 220.605 26.1374 220.368 26.011C219.924 25.7744 219.085 25.7265 218.493 25.9039C218.178 25.9982 217.983 26.143 217.96 26.2999L217.815 27.2502C217.788 27.4304 217.401 27.5676 216.95 27.5567C216.583 27.5478 216.276 27.442 216.2 27.2983L216.027 26.972C215.885 26.7057 215.231 26.5356 214.564 26.5921C214.1 26.6315 213.733 26.7741 213.622 26.9587C213.457 27.2317 212.769 27.3996 212.086 27.3337C211.616 27.2884 211.251 27.1403 211.144 26.9516L208.573 22.4122C208.419 22.1399 207.742 21.9692 207.06 22.0308C206.768 22.0573 206.508 22.1246 206.328 22.2205C205.923 22.4365 205.156 22.4803 204.616 22.3183C204.375 22.2462 204.209 22.141 204.15 22.0231L202.813 19.3507C202.566 18.8563 201.363 18.5357 200.126 18.6346C199.399 18.6927 198.788 18.8882 198.487 19.159L196.905 20.5823C196.611 20.8463 195.838 20.9651 195.178 20.8478C194.849 20.7894 194.595 20.6796 194.476 20.544C194.268 20.3092 193.624 20.186 193.037 20.2689C192.709 20.3152 192.452 20.4195 192.342 20.5515L189.432 24.041C188.882 24.7015 187.096 25.0584 185.444 24.8382C184.377 24.6961 183.58 24.3374 183.353 23.8971L182.386 22.0232C182.142 21.5519 180.989 21.2487 179.81 21.3459C179.112 21.4035 178.528 21.5941 178.247 21.8561L176.831 23.1774C176.471 23.5128 175.499 23.6682 174.66 23.5244C174.327 23.4672 174.049 23.3676 173.871 23.2411C173.429 22.9271 172.434 22.8157 171.649 22.9923C171.331 23.0637 171.083 23.1755 170.942 23.31L167.268 26.8359C166.82 27.2652 165.587 27.4682 164.513 27.2893C163.918 27.1903 163.47 26.9879 163.295 26.74L162.654 25.8282C162.475 25.5738 161.814 25.4255 161.177 25.4971C160.808 25.5386 160.51 25.6484 160.378 25.7924C160.107 26.0862 159.292 26.2366 158.557 26.1284C158.18 26.0728 157.879 25.956 157.73 25.8069L155.518 23.5957C155.089 23.167 153.871 22.9585 152.799 23.1299C152.39 23.1954 152.043 23.3108 151.808 23.4597C151.291 23.7869 150.208 23.8846 149.39 23.678C149.009 23.5817 148.735 23.4304 148.626 23.2556L147.668 21.7236C147.424 21.3343 146.437 21.0975 145.463 21.1949C144.824 21.2588 144.321 21.456 144.149 21.7103L143.277 23C143.021 23.379 142.045 23.6033 141.096 23.5008C140.713 23.4594 140.376 23.368 140.138 23.2411C139.469 22.8847 138.204 22.8125 137.313 23.0797C137.01 23.1707 136.777 23.294 136.64 23.4355L136.126 23.97C135.682 24.4317 134.386 24.662 133.231 24.4844C132.709 24.4042 132.281 24.2489 132.031 24.049L130.721 23.0015C129.949 22.3844 129.288 21.7463 128.742 21.0918L127.633 19.7612C127.464 19.5592 126.918 19.45 126.413 19.5173C126.209 19.5444 126.034 19.5979 125.915 19.6693C125.648 19.8295 125.106 19.8728 124.705 19.766C124.524 19.7179 124.395 19.6446 124.343 19.5604L122.066 15.9195C121.716 15.3602 120.298 15.0201 118.899 15.16C117.935 15.2563 117.191 15.5633 116.98 15.9517L115.351 18.9568C115.157 19.3164 114.269 19.5447 113.37 19.4668C112.996 19.4344 112.661 19.3514 112.422 19.2319C111.424 18.7333 109.604 18.6525 108.357 19.0514C108.214 19.0972 108.081 19.1485 107.962 19.2044L106.04 20.1066C104.902 20.6405 102.897 20.7046 101.562 20.2498C101.027 20.0676 100.658 19.8197 100.513 19.5448L99.6577 17.9198C99.3517 17.3386 97.9251 16.9667 96.4713 17.0891C95.505 17.1704 94.7278 17.4568 94.4468 17.8353L93.7668 18.7509C93.3281 19.3417 91.7745 19.6784 90.2968 19.503C89.3018 19.3849 88.5528 19.0559 88.3525 18.6487C88.056 18.0462 86.5939 17.6539 85.0867 17.7724C84.0703 17.8524 83.2493 18.1515 82.9561 18.5487L82.8822 18.6487C82.526 19.1313 81.2588 19.407 80.0517 19.2646C79.164 19.1599 78.523 18.851 78.4296 18.4829L77.4645 14.6801C77.3462 14.2137 76.3045 13.874 75.1379 13.9213C74.6965 13.9392 74.2802 14.012 73.9475 14.1293C72.5161 14.6342 70.3321 14.5796 69.0691 14.0074C68.9333 13.9459 68.8114 13.8796 68.705 13.8094L67.0622 12.7258C65.9777 12.0105 63.6479 11.782 61.8585 12.2156C61.2605 12.3605 60.7744 12.5687 60.4541 12.8172C59.8514 13.2849 58.4144 13.4688 57.2444 13.2278C56.6025 13.0956 56.1452 12.8542 56.0008 12.5714L55.0776 10.7629C54.8263 10.2708 53.6247 9.95321 52.3936 10.0536C51.6901 10.111 51.0957 10.2978 50.79 10.5575C50.2857 10.9859 49.0083 11.1697 47.9368 10.9681C47.3008 10.8485 46.8519 10.6119 46.7352 10.3348L42.9747 1.40311C42.8011 0.990848 41.8244 0.712897 40.7931 0.782287C40.0927 0.829418 39.5171 1.02929 39.3024 1.29996L37.4717 3.60819C37.1121 4.06154 36.6972 4.50758 36.2286 4.94471L35.2909 5.81939C35.0272 6.06537 34.3146 6.17931 33.6993 6.07389C33.3182 6.0086 33.0471 5.86997 32.9804 5.70637L32.1473 3.66036C31.9797 3.24876 31.0091 2.96941 29.9795 3.03642C29.3394 3.07807 28.7975 3.24811 28.5442 3.48678L27.5918 4.38429C27.1291 4.82029 25.8699 5.02378 24.7793 4.83882C24.3771 4.77061 24.0366 4.65495 23.8033 4.5073C23.362 4.22792 22.4376 4.14448 21.7387 4.32093C21.3657 4.41512 21.1156 4.57031 21.0554 4.74504L20.3738 6.72032C20.229 7.14002 20.0385 7.55699 19.8028 7.97006L16.9967 12.8884C16.7174 13.3779 15.4984 13.6842 14.2738 13.5726C13.5568 13.5072 12.9631 13.3073 12.6803 13.0359C12.242 12.6153 11.0338 12.4165 9.98177 12.5917C9.32923 12.7004 8.86129 12.9351 8.74165 13.2136L5.79067 20.0836C5.64259 20.4283 4.82347 20.6598 3.96112 20.6006C3.25379 20.552 2.71645 20.3195 2.65147 20.0337L2.0161 17.2398C1.93513 16.8837 -0.413167 16.6023 -1.30384 16.6347C-1.82553 16.6537 -0.995374 66.4801 -1.25932 66.661L-0.995365 66.4801H231.491H231.648Z" stroke="#435274" stroke-linecap="round" stroke-linejoin="round"/>
<defs>
<linearGradient id="paint0_linear" x1="115.084" y1="0.771667" x2="115.084" y2="37.7756" gradientUnits="userSpaceOnUse">
<stop stop-color="#435274" stop-opacity="0.0775094"/>
<stop offset="1" stop-color="#435274" stop-opacity="0"/>
</linearGradient>
</defs>
</svg>
