<svg width="21" height="20" viewBox="0 0 21 20" fill="none" xmlns="http://www.w3.org/2000/svg">
<g clip-path="url(#clip0)">
<path d="M4.12733 5.65951C3.10312 5.19641 2.19142 4.60201 1.52966 3.6416C1.60816 3.60413 1.67674 3.57021 1.74623 3.53848C2.75933 3.0751 3.8075 2.72059 4.88507 2.45594C5.46343 2.31384 6.04629 2.19567 6.63445 2.10854C6.99161 2.05561 7.35102 2.01828 7.71016 1.98025C7.90939 1.95919 8.11008 1.95235 8.30984 1.9369C8.35458 1.93348 8.38278 1.9503 8.41058 1.98531C9.04202 2.78186 9.6744 3.57746 10.3066 4.37319C10.3246 4.39589 10.3436 4.41778 10.3682 4.44745C10.3867 4.42653 10.403 4.40971 10.4174 4.39138C11.0542 3.59059 11.6911 2.7898 12.3267 1.98805C12.3561 1.95085 12.3847 1.93307 12.432 1.93717C12.7588 1.96548 13.0873 1.98094 13.4126 2.02115C13.8516 2.07531 14.2902 2.1374 14.7257 2.21522C15.5895 2.36964 16.4389 2.58738 17.2741 2.86434C17.9098 3.0751 18.5321 3.32142 19.1396 3.60768C19.1592 3.61685 19.1783 3.62724 19.208 3.64242C18.5488 4.60214 17.6357 5.19641 16.6125 5.65897C16.5989 5.57663 16.5885 5.50743 16.5758 5.4389C16.4822 4.93518 16.185 4.61814 15.7264 4.44759C15.426 4.33599 15.1144 4.2795 14.7989 4.24353C14.2548 4.18144 13.7085 4.17104 13.1616 4.17008C13.0988 4.16995 13.0765 4.1865 13.0651 4.25351C12.896 5.25221 12.7235 6.25036 12.5514 7.24851C12.3989 8.1326 12.2452 9.01641 12.0931 9.90049C11.9145 10.939 11.7375 11.9779 11.5588 13.0164C11.3982 13.9497 11.2359 14.8828 11.0752 15.8161C10.9403 16.5995 10.807 17.3831 10.6727 18.1665C10.5759 18.7305 10.4786 19.2946 10.3812 19.8585C10.3801 19.8644 10.3753 19.8695 10.367 19.8846C10.3249 19.6413 10.2847 19.4075 10.244 19.1737C10.1402 18.5762 10.0361 17.9788 9.9324 17.3814C9.82015 16.7348 9.70855 16.088 9.59629 15.4412C9.47901 14.7654 9.36119 14.0898 9.24403 13.414C9.13191 12.7673 9.02045 12.1204 8.90819 11.4738C8.7909 10.798 8.67282 10.1223 8.55566 9.44655C8.44354 8.7999 8.33234 8.15297 8.22022 7.50632C8.11193 6.88197 8.00285 6.25775 7.8943 5.63353C7.81342 5.1681 7.73187 4.7028 7.65364 4.23696C7.64437 4.18198 7.62398 4.16393 7.57262 4.16598C7.10797 4.18349 6.64279 4.19019 6.1788 4.21918C5.78087 4.24394 5.38586 4.3033 5.00858 4.448C4.67194 4.57711 4.39262 4.77953 4.25574 5.13732C4.20054 5.28162 4.17658 5.43877 4.13872 5.59017C4.13474 5.60699 4.13302 5.62477 4.12733 5.65951Z" fill="#D3323C"/>
<path d="M1.21162 3.08534C1.03304 2.70799 0.857372 2.33653 0.677734 1.95685C0.726847 1.93401 0.759412 1.91691 0.793301 1.90337C1.77211 1.51153 2.7676 1.17275 3.78307 0.896606C4.58701 0.678047 5.39849 0.495869 6.21898 0.359509C6.68627 0.281823 7.15648 0.221507 7.62642 0.162422C8.2257 0.0870618 8.8275 0.0405599 9.43101 0.02319C9.86058 0.0107439 10.2905 -0.00484792 10.7199 0.00294799C11.2021 0.0117013 11.6846 0.034542 12.1657 0.0702391C13.1836 0.1456 14.194 0.283464 15.1964 0.483696C16.1991 0.683791 17.1907 0.931209 18.1614 1.25905C18.7706 1.46489 19.3717 1.69589 19.9771 1.91377C20.0396 1.9362 20.0545 1.96383 20.0238 2.0277C19.8642 2.35991 19.7077 2.69363 19.5495 3.02667C19.541 3.04459 19.5274 3.06004 19.5138 3.08015C19.3744 3.02051 19.2364 2.9617 19.0986 2.90276C18.4958 2.64453 17.8817 2.41872 17.2583 2.21931C16.3732 1.9362 15.4758 1.70369 14.5611 1.55146C13.9569 1.45094 13.35 1.36409 12.7414 1.29789C12.2666 1.24619 11.7879 1.22294 11.3104 1.21036C10.7112 1.19477 10.1113 1.19477 9.51203 1.20379C9.11357 1.20981 8.71458 1.23183 8.31771 1.26821C7.82658 1.31335 7.33665 1.37448 6.84751 1.44013C6.09096 1.54189 5.34475 1.70177 4.60501 1.89339C3.46788 2.18799 2.36106 2.57615 1.28482 3.05703C1.26722 3.06538 1.24842 3.07139 1.21162 3.08534Z" fill="#D3323C"/>
</g>
<defs>
<clipPath id="clip0">
<rect width="19.3616" height="19.8849" fill="white" transform="translate(0.677734)"/>
</clipPath>
</defs>
</svg>
