<svg width="237" height="29" viewBox="0 0 237 29" fill="none" xmlns="http://www.w3.org/2000/svg">
<path opacity="0.16" d="M1 27.3231L1.28333 27.0069C1.44289 26.8288 1.9344 26.7359 2.38116 26.7996C2.57762 26.8275 2.74183 26.883 2.84314 26.9557C3.06378 27.1141 3.56459 27.1711 3.96174 27.0832C4.14432 27.0427 4.28148 26.9761 4.3454 26.8968L5.43991 25.5394C5.7152 25.1979 6.63265 25.0101 7.48911 25.1199C8.00689 25.1862 8.40745 25.3512 8.55686 25.5597L9.01868 26.204C9.29641 26.5915 10.3096 26.8159 11.2816 26.7052C11.6658 26.6615 12.0034 26.5688 12.2431 26.4414C12.6918 26.2029 13.5405 26.1546 14.1388 26.3334C14.4567 26.4285 14.6539 26.5745 14.6779 26.7326L14.8235 27.6905C14.8511 27.8721 15.2428 28.0104 15.6983 27.9994C16.0692 27.9904 16.3795 27.8839 16.4566 27.7389L16.6316 27.4101C16.7744 27.1416 17.4362 26.9701 18.1097 27.0271C18.5794 27.0668 18.9501 27.2105 19.0627 27.3966C19.2294 27.6718 19.9242 27.8411 20.6146 27.7747C21.09 27.7289 21.4592 27.5797 21.5672 27.3895L24.166 22.8138C24.3219 22.5393 25.0064 22.3672 25.6949 22.4293C25.9908 22.456 26.2533 22.5238 26.4353 22.6206C26.8449 22.8383 27.6197 22.8824 28.1659 22.7191C28.4092 22.6464 28.5767 22.5404 28.6363 22.4215L29.9877 19.7278C30.2378 19.2294 31.4539 18.9062 32.704 19.0059C33.4388 19.0645 34.0565 19.2616 34.3608 19.5345L35.9603 20.9692C36.2569 21.2353 37.0384 21.3551 37.7058 21.2369C38.0379 21.178 38.2947 21.0672 38.4157 20.9306C38.6252 20.6939 39.2764 20.5697 39.8702 20.6533C40.202 20.6999 40.4611 20.8051 40.5723 20.9381L43.5134 24.4556C44.0701 25.1213 45.8752 25.4811 47.5452 25.2592C48.6237 25.1159 49.4291 24.7544 49.6588 24.3106L50.6365 22.4217C50.8825 21.9466 52.0479 21.6409 53.2397 21.7389C53.9456 21.797 54.5357 21.9891 54.8196 22.2532L56.2515 23.5851C56.6149 23.9232 57.5971 24.0798 58.4451 23.9349C58.7827 23.8772 59.0631 23.7768 59.2431 23.6493C59.6897 23.3327 60.6954 23.2205 61.4894 23.3985C61.8104 23.4705 62.0617 23.5832 62.2033 23.7187L65.918 27.2728C66.3703 27.7056 67.617 27.9102 68.7025 27.7299C69.3036 27.6301 69.757 27.4261 69.9333 27.1762L70.5817 26.2571C70.7627 26.0006 71.431 25.8512 72.0744 25.9233C72.4478 25.9652 72.7483 26.0759 72.8824 26.221C73.1561 26.5171 73.9802 26.6688 74.7232 26.5597C75.1042 26.5037 75.4078 26.3859 75.5586 26.2356L77.7951 24.0067C78.2287 23.5746 79.4589 23.3644 80.5429 23.5372C80.9565 23.6032 81.3072 23.7195 81.5451 23.8697C82.0675 24.1994 83.1616 24.2979 83.9888 24.0897C84.3742 23.9926 84.6509 23.8401 84.7614 23.6639L85.7298 22.1197C85.9759 21.7272 86.9736 21.4886 87.9581 21.5867C88.6043 21.6511 89.1125 21.8499 89.2863 22.1062L90.1676 23.4062C90.4267 23.7883 91.4136 24.0144 92.3721 23.9111C92.7593 23.8694 93.1005 23.7772 93.3412 23.6493C94.017 23.29 95.2953 23.2172 96.1964 23.4866C96.503 23.5783 96.7386 23.7026 96.8762 23.8452L97.3961 24.384C97.8451 24.8494 99.1554 25.0816 100.323 24.9026C100.85 24.8217 101.283 24.6652 101.535 24.4637L102.86 23.4077C103.64 22.7858 104.308 22.1425 104.86 21.4828L105.981 20.1416C106.152 19.9379 106.704 19.8278 107.215 19.8957C107.42 19.923 107.597 19.9769 107.718 20.0489C107.988 20.2104 108.535 20.2541 108.941 20.1464C109.123 20.0979 109.254 20.024 109.307 19.9391L111.609 16.2691C111.962 15.7053 113.395 15.3625 114.809 15.5035C115.784 15.6006 116.536 15.91 116.749 16.3015L118.395 19.3307C118.592 19.6931 119.489 19.9233 120.398 19.8448C120.777 19.8121 121.115 19.7285 121.357 19.608C122.365 19.1054 124.205 19.024 125.465 19.426C125.61 19.4723 125.744 19.5239 125.865 19.5803L127.808 20.4897C128.958 21.0278 130.984 21.0925 132.334 20.6341C132.875 20.4504 133.247 20.2005 133.394 19.9234L134.259 18.2854C134.568 17.6996 136.01 17.3247 137.48 17.448C138.456 17.53 139.242 17.8187 139.526 18.2002L140.213 19.1232C140.657 19.7186 142.227 20.0581 143.721 19.8813C144.727 19.7623 145.484 19.4306 145.686 19.0202C145.986 18.4128 147.464 18.0174 148.987 18.1368C150.015 18.2174 150.845 18.5189 151.141 18.9193L151.216 19.0202C151.576 19.5066 152.857 19.7845 154.077 19.641C154.974 19.5354 155.622 19.224 155.716 18.853L156.692 15.0197C156.812 14.5496 157.865 14.2072 159.044 14.2549C159.49 14.273 159.911 14.3463 160.247 14.4646C161.694 14.9735 163.902 14.9185 165.178 14.3417C165.315 14.2797 165.439 14.2129 165.546 14.1421L167.207 13.0498C168.303 12.3288 170.658 12.0985 172.467 12.5355C173.071 12.6816 173.563 12.8915 173.886 13.142C174.496 13.6134 175.948 13.7987 177.131 13.5559C177.78 13.4226 178.242 13.1793 178.388 12.8942L179.321 11.0712C179.575 10.5751 180.79 10.255 182.034 10.3563C182.745 10.4141 183.346 10.6024 183.655 10.8642C184.165 11.296 185.456 11.4813 186.539 11.2781C187.182 11.1575 187.636 10.919 187.754 10.6397L191.555 1.6365C191.73 1.22093 192.717 0.940759 193.76 1.0107C194.468 1.05821 195.05 1.25969 195.267 1.53252L197.117 3.85923C197.481 4.3162 197.9 4.76581 198.374 5.20645L199.322 6.08813C199.588 6.33607 200.308 6.45093 200.93 6.34467C201.316 6.27885 201.59 6.13911 201.657 5.9742L202.499 3.91181C202.669 3.49692 203.65 3.21534 204.69 3.28288C205.337 3.32487 205.885 3.49626 206.141 3.73685L207.104 4.64154C207.572 5.08103 208.844 5.28615 209.947 5.09971C210.353 5.03096 210.698 4.91437 210.933 4.76553C211.379 4.48392 212.314 4.39981 213.02 4.57767C213.397 4.67262 213.65 4.82905 213.711 5.00518L214.4 6.99627C214.546 7.41933 214.739 7.83964 214.977 8.25601L217.813 13.2137C218.096 13.7072 219.328 14.0159 220.566 13.9034C221.29 13.8375 221.891 13.636 222.176 13.3624C222.62 12.9385 223.841 12.738 224.904 12.9146C225.564 13.0242 226.037 13.2607 226.158 13.5415L229.141 20.4665C229.29 20.814 230.118 21.0473 230.99 20.9876C231.705 20.9387 232.248 20.7043 232.314 20.4162L232.956 17.5999C233.038 17.241 233.834 16.9765 234.734 17.0091C235.262 17.0282 235.733 17.1479 236 17.3302" stroke="#A2B1C3" stroke-linecap="round" stroke-linejoin="round"/>
</svg>
