<svg width="232" height="38" viewBox="0 0 232 38" fill="none" xmlns="http://www.w3.org/2000/svg">
<path fill-rule="evenodd" clip-rule="evenodd" d="M-1.65723 66.4704L-1.21397 26.5623C-1.05408 26.3856 -0.561527 26.2935 -0.11383 26.3566C0.0830376 26.3844 0.247593 26.4395 0.349115 26.5116C0.570215 26.6687 1.07208 26.7252 1.47006 26.638C1.65302 26.5979 1.79047 26.5318 1.85452 26.4531L2.95133 25.1064C3.22719 24.7677 4.14657 24.5814 5.00482 24.6903C5.52369 24.7561 5.92509 24.9198 6.07482 25.1266L6.5376 25.7659C6.81591 26.1503 7.83119 26.3729 8.80528 26.2631C9.19022 26.2196 9.52862 26.1277 9.76882 26.0013C10.2184 25.7647 11.0689 25.7168 11.6684 25.8942C11.9871 25.9885 12.1846 26.1333 12.2087 26.2902L12.3546 27.2405C12.3823 27.4207 12.7747 27.5579 13.2312 27.5469C13.6029 27.5381 13.9138 27.4323 13.9911 27.2886L14.1664 26.9623C14.3096 26.696 14.9728 26.5259 15.6476 26.5824C16.1183 26.6218 16.4898 26.7644 16.6027 26.949C16.7697 27.222 17.466 27.3899 18.1579 27.324C18.6343 27.2786 19.0042 27.1306 19.1124 26.9419L21.7166 22.4025C21.8729 22.1302 22.5588 21.9594 23.2488 22.0211C23.5453 22.0476 23.8083 22.1149 23.9907 22.2108C24.4012 22.4268 25.1776 22.4706 25.7249 22.3086C25.9687 22.2364 26.1366 22.1313 26.1964 22.0134L27.5506 19.341C27.8012 18.8466 29.0198 18.526 30.2726 18.6249C31.0089 18.683 31.6279 18.8785 31.9328 19.1493L33.5357 20.5726C33.8329 20.8366 34.616 20.9554 35.2848 20.8381C35.6177 20.7797 35.875 20.6698 35.9962 20.5343C36.2062 20.2995 36.8588 20.1763 37.4538 20.2592C37.7862 20.3055 38.0459 20.4098 38.1574 20.5418L41.1046 24.0313C41.6625 24.6917 43.4713 25.0487 45.1448 24.8285C46.2256 24.6864 47.0327 24.3277 47.2629 23.8874L48.2427 22.0135C48.4891 21.5422 49.657 21.239 50.8513 21.3362C51.5587 21.3938 52.15 21.5844 52.4345 21.8464L53.8694 23.1677C54.2336 23.5031 55.2178 23.6585 56.0677 23.5147C56.4059 23.4575 56.6869 23.3579 56.8673 23.2314C57.3149 22.9174 58.3227 22.806 59.1183 22.9826C59.4399 23.054 59.6918 23.1658 59.8337 23.3003L63.5562 26.8262C64.0094 27.2555 65.2587 27.4585 66.3465 27.2796C66.9489 27.1806 67.4033 26.9782 67.5799 26.7303L68.2297 25.8185C68.411 25.5641 69.0807 25.4158 69.7255 25.4874C70.0997 25.5289 70.4007 25.6387 70.5351 25.7827C70.8094 26.0765 71.6353 26.2269 72.3798 26.1187C72.7616 26.0631 73.0659 25.9463 73.217 25.7972L75.4581 23.586C75.8926 23.1573 77.1255 22.9488 78.2117 23.1202C78.6262 23.1857 78.9777 23.3011 79.216 23.45C79.7396 23.7772 80.8359 23.8749 81.6649 23.6683C82.051 23.572 82.3283 23.4207 82.4391 23.2458L83.4095 21.7139C83.6562 21.3246 84.6559 21.0878 85.6425 21.1852C86.29 21.2491 86.7993 21.4463 86.9734 21.7006L87.8566 22.9903C88.1162 23.3693 89.1052 23.5936 90.0657 23.4911C90.4538 23.4497 90.7956 23.3583 91.0368 23.2314C91.7141 22.875 92.9951 22.8028 93.898 23.07C94.2053 23.161 94.4414 23.2843 94.5793 23.4258L95.1002 23.9603C95.5502 24.422 96.8632 24.6523 98.0331 24.4747C98.5616 24.3945 98.995 24.2392 99.2482 24.0393L100.575 22.9918C101.357 22.3747 102.027 21.7366 102.58 21.0821L103.703 19.7515C103.874 19.5495 104.427 19.4403 104.939 19.5076C105.146 19.5347 105.323 19.5882 105.443 19.6596C105.714 19.8198 106.263 19.8631 106.669 19.7563C106.852 19.7082 106.983 19.6348 107.036 19.5507L109.343 15.9098C109.697 15.3505 111.133 15.0104 112.55 15.1503C113.527 15.2466 114.281 15.5536 114.494 15.942L116.144 18.9471C116.341 19.3067 117.24 19.535 118.151 19.4571C118.53 19.4247 118.869 19.3417 119.111 19.2222C120.122 18.7236 121.965 18.6428 123.228 19.0416C123.374 19.0875 123.508 19.1388 123.628 19.1947L125.576 20.0969C126.728 20.6308 128.759 20.6949 130.111 20.2401C130.653 20.0579 131.027 19.81 131.173 19.5351L132.04 17.9101C132.35 17.3289 133.795 16.957 135.268 17.0794C136.247 17.1607 137.034 17.4471 137.319 17.8256L138.007 18.7412C138.452 19.332 140.025 19.6687 141.522 19.4933C142.53 19.3752 143.289 19.0462 143.492 18.639C143.792 18.0365 145.273 17.6442 146.8 17.7627C147.829 17.8427 148.661 18.1418 148.958 18.539L149.033 18.639C149.393 19.1216 150.677 19.3973 151.9 19.2549C152.799 19.1502 153.448 18.8413 153.543 18.4732L154.52 14.6704C154.64 14.204 155.695 13.8643 156.877 13.9116C157.324 13.9295 157.746 14.0023 158.083 14.1196C159.533 14.6245 161.745 14.5699 163.024 13.9977C163.162 13.9362 163.285 13.8699 163.393 13.7997L165.057 12.7161C166.156 12.0008 168.516 11.7723 170.328 12.2059C170.934 12.3508 171.426 12.559 171.751 12.8075C172.361 13.2752 173.817 13.4591 175.002 13.2181C175.652 13.0859 176.115 12.8445 176.262 12.5617L177.197 10.7532C177.451 10.261 178.669 9.94351 179.916 10.0439C180.628 10.1013 181.23 10.2881 181.54 10.5478C182.051 10.9762 183.345 11.16 184.43 10.9584C185.074 10.8388 185.529 10.6022 185.647 10.3251L189.456 1.3934C189.632 0.981143 190.621 0.703192 191.666 0.772582C192.376 0.819713 192.959 1.01959 193.176 1.29026L195.03 3.59849C195.395 4.05183 195.815 4.49787 196.29 4.93501L197.239 5.80969C197.507 6.05566 198.228 6.16961 198.852 6.06419C199.238 5.9989 199.512 5.86026 199.58 5.69667L200.424 3.65065C200.593 3.23905 201.577 2.95971 202.619 3.02671C203.268 3.06837 203.817 3.2384 204.073 3.47708L205.038 4.37459C205.507 4.81058 206.782 5.01408 207.887 4.82911C208.294 4.76091 208.639 4.64525 208.876 4.4976C209.323 4.21822 210.259 4.13478 210.967 4.31123C211.345 4.40541 211.598 4.56061 211.659 4.73534L212.349 6.71062C212.496 7.13031 212.689 7.54729 212.928 7.96035L215.77 12.8787C216.053 13.3682 217.288 13.6745 218.528 13.5629C219.255 13.4975 219.856 13.2976 220.142 13.0262C220.586 12.6056 221.81 12.4068 222.876 12.582C223.537 12.6907 224.011 12.9253 224.132 13.2039L227.121 20.0739C227.271 20.4186 228.101 20.6501 228.974 20.5909C229.691 20.5423 230.235 20.3098 230.301 20.024L230.944 17.2301C231.027 16.874 233.405 16.5926 234.307 16.625C234.836 16.644 233.995 66.4704 234.262 66.6513" fill="url(#paint0_linear)"/>
<path d="M-1.65723 66.4704L-1.21397 26.5623C-1.05408 26.3856 -0.561527 26.2935 -0.11383 26.3566C0.0830377 26.3844 0.247593 26.4395 0.349115 26.5116C0.570215 26.6687 1.07208 26.7252 1.47006 26.638C1.65302 26.5979 1.79047 26.5318 1.85452 26.4531L2.95133 25.1064C3.22719 24.7677 4.14657 24.5814 5.00482 24.6903C5.52369 24.7561 5.92509 24.9198 6.07482 25.1266L6.5376 25.7659C6.81591 26.1503 7.83119 26.3729 8.80528 26.2631C9.19022 26.2196 9.52862 26.1277 9.76882 26.0013C10.2184 25.7647 11.0689 25.7168 11.6684 25.8942C11.9871 25.9885 12.1846 26.1333 12.2087 26.2902L12.3546 27.2405C12.3823 27.4207 12.7747 27.5579 13.2312 27.5469C13.6029 27.5381 13.9138 27.4323 13.9911 27.2886L14.1664 26.9623C14.3096 26.696 14.9728 26.5259 15.6476 26.5824C16.1183 26.6218 16.4898 26.7644 16.6027 26.949C16.7697 27.222 17.466 27.3899 18.1579 27.324C18.6343 27.2786 19.0042 27.1306 19.1124 26.9419L21.7166 22.4025C21.8729 22.1302 22.5588 21.9594 23.2488 22.0211C23.5453 22.0476 23.8083 22.1149 23.9907 22.2108C24.4012 22.4268 25.1776 22.4706 25.7249 22.3086C25.9687 22.2364 26.1366 22.1313 26.1964 22.0134L27.5506 19.341C27.8012 18.8466 29.0198 18.526 30.2726 18.6249C31.0089 18.683 31.6279 18.8785 31.9328 19.1493L33.5357 20.5726C33.8329 20.8366 34.616 20.9554 35.2848 20.8381C35.6177 20.7797 35.875 20.6698 35.9962 20.5343C36.2062 20.2995 36.8588 20.1763 37.4538 20.2592C37.7862 20.3055 38.0459 20.4098 38.1574 20.5418L41.1046 24.0313C41.6625 24.6917 43.4713 25.0487 45.1448 24.8285C46.2256 24.6864 47.0327 24.3277 47.2629 23.8874L48.2427 22.0135C48.4891 21.5422 49.657 21.239 50.8513 21.3362C51.5587 21.3938 52.15 21.5844 52.4345 21.8464L53.8694 23.1677C54.2336 23.5031 55.2178 23.6585 56.0677 23.5147C56.4059 23.4575 56.6869 23.3579 56.8673 23.2314C57.3149 22.9174 58.3227 22.806 59.1183 22.9826C59.4399 23.054 59.6918 23.1658 59.8337 23.3003L63.5562 26.8262C64.0094 27.2555 65.2587 27.4585 66.3465 27.2796C66.9489 27.1806 67.4033 26.9782 67.5799 26.7303L68.2297 25.8185C68.411 25.5641 69.0807 25.4158 69.7255 25.4874C70.0997 25.5289 70.4007 25.6387 70.5351 25.7827C70.8094 26.0765 71.6353 26.2269 72.3798 26.1187C72.7616 26.0631 73.0659 25.9463 73.217 25.7972L75.4581 23.586C75.8926 23.1573 77.1255 22.9488 78.2117 23.1202C78.6262 23.1857 78.9777 23.3011 79.216 23.45C79.7396 23.7772 80.8359 23.8749 81.6649 23.6683C82.051 23.572 82.3283 23.4207 82.4391 23.2458L83.4095 21.7139C83.6562 21.3246 84.6559 21.0878 85.6425 21.1852C86.29 21.2491 86.7993 21.4463 86.9734 21.7006L87.8566 22.9903C88.1162 23.3693 89.1052 23.5936 90.0657 23.4911C90.4538 23.4497 90.7956 23.3583 91.0368 23.2314C91.7141 22.875 92.9951 22.8028 93.898 23.07C94.2053 23.161 94.4414 23.2843 94.5793 23.4258L95.1002 23.9603C95.5502 24.422 96.8632 24.6523 98.0331 24.4747C98.5616 24.3945 98.995 24.2392 99.2482 24.0393L100.575 22.9918C101.357 22.3747 102.027 21.7366 102.58 21.0821L103.703 19.7515C103.874 19.5495 104.427 19.4403 104.939 19.5076C105.146 19.5347 105.323 19.5882 105.443 19.6596C105.714 19.8198 106.263 19.8631 106.669 19.7563C106.852 19.7082 106.983 19.6348 107.036 19.5507L109.343 15.9098C109.697 15.3505 111.133 15.0104 112.55 15.1503C113.527 15.2466 114.281 15.5536 114.494 15.942L116.144 18.9471C116.341 19.3067 117.24 19.535 118.151 19.4571C118.53 19.4247 118.869 19.3417 119.111 19.2222C120.122 18.7236 121.965 18.6428 123.228 19.0416C123.374 19.0875 123.508 19.1388 123.628 19.1947L125.576 20.0969C126.728 20.6308 128.759 20.6949 130.111 20.2401C130.653 20.0579 131.027 19.81 131.173 19.5351L132.04 17.9101C132.35 17.3289 133.795 16.957 135.268 17.0794C136.247 17.1607 137.034 17.4471 137.319 17.8256L138.007 18.7412C138.452 19.332 140.025 19.6687 141.522 19.4933C142.53 19.3752 143.289 19.0462 143.492 18.639C143.792 18.0365 145.273 17.6442 146.8 17.7627C147.829 17.8427 148.661 18.1418 148.958 18.539L149.033 18.639C149.393 19.1216 150.677 19.3973 151.9 19.2549C152.799 19.1502 153.448 18.8413 153.543 18.4732L154.52 14.6704C154.64 14.204 155.695 13.8643 156.877 13.9116C157.324 13.9295 157.746 14.0023 158.083 14.1196C159.533 14.6245 161.745 14.5699 163.024 13.9977C163.162 13.9362 163.285 13.8699 163.393 13.7997L165.057 12.7161C166.156 12.0008 168.516 11.7723 170.328 12.2059C170.934 12.3508 171.426 12.559 171.751 12.8075C172.361 13.2752 173.817 13.4591 175.002 13.2181C175.652 13.0859 176.115 12.8445 176.262 12.5617L177.197 10.7532C177.451 10.261 178.669 9.94351 179.916 10.0439C180.628 10.1013 181.23 10.2881 181.54 10.5478C182.051 10.9762 183.345 11.16 184.43 10.9584C185.074 10.8388 185.529 10.6022 185.647 10.3251L189.456 1.3934C189.632 0.981143 190.621 0.703192 191.666 0.772582C192.376 0.819713 192.959 1.01959 193.176 1.29026L195.03 3.59849C195.395 4.05183 195.815 4.49787 196.29 4.93501L197.239 5.80969C197.507 6.05566 198.228 6.16961 198.852 6.06419C199.238 5.9989 199.512 5.86026 199.58 5.69667L200.424 3.65065C200.593 3.23905 201.577 2.95971 202.619 3.02671C203.268 3.06837 203.817 3.2384 204.073 3.47708L205.038 4.37459C205.507 4.81058 206.782 5.01408 207.887 4.82911C208.294 4.76091 208.639 4.64525 208.876 4.4976C209.323 4.21822 210.259 4.13478 210.967 4.31123C211.345 4.40541 211.598 4.56061 211.659 4.73534L212.349 6.71062C212.496 7.13031 212.689 7.54729 212.928 7.96035L215.77 12.8787C216.053 13.3682 217.288 13.6745 218.528 13.5629C219.255 13.4975 219.856 13.2976 220.142 13.0262C220.586 12.6056 221.81 12.4068 222.876 12.582C223.537 12.6907 224.011 12.9253 224.132 13.2039L227.121 20.0739C227.271 20.4186 228.101 20.6501 228.974 20.5909C229.691 20.5423 230.235 20.3098 230.301 20.024L230.944 17.2301C231.027 16.874 233.405 16.5926 234.307 16.625C234.836 16.644 233.995 66.4704 234.262 66.6513L233.995 66.4704H-1.49789H-1.65723Z" stroke="#40C8B7" stroke-linecap="round" stroke-linejoin="round"/>
<defs>
<linearGradient id="paint0_linear" x1="116.414" y1="0.761963" x2="116.414" y2="37.7659" gradientUnits="userSpaceOnUse">
<stop stop-color="#03C79F" stop-opacity="0.3"/>
<stop offset="1" stop-color="#E6F9F5" stop-opacity="0"/>
</linearGradient>
</defs>
</svg>
