<svg width="130" height="24" viewBox="0 0 130 24" fill="none" xmlns="http://www.w3.org/2000/svg">
<path d="M45.6301 19.4105L50.6121 11.3574L45.5619 3.48639H48.906L52.4775 9.03707L55.7533 3.48639H59.0291L54.0472 11.4939L59.1429 19.4105H55.7988L52.1818 13.7915L48.906 19.4105H45.6301ZM65.6 19.4105C64.4171 19.4105 63.4692 19.1223 62.7564 18.546C62.0436 17.9697 61.6872 16.946 61.6872 15.4749V10.5612H59.7536V8.12712H61.6872L62.0284 5.10155H64.599V8.12712H67.6474V10.5612H64.599V15.4977C64.599 16.0437 64.7128 16.4228 64.9403 16.6351C65.1829 16.8323 65.5924 16.9309 66.1687 16.9309H67.5791V19.4105H65.6ZM69.3891 19.4105V8.12712H71.9825L72.2555 10.2427C72.6649 9.51479 73.2185 8.93849 73.9161 8.51385C74.6289 8.07404 75.463 7.85413 76.4185 7.85413V10.9252H75.5995C74.9625 10.9252 74.3938 11.0238 73.8934 11.2209C73.3929 11.4181 72.9986 11.7593 72.7104 12.2446C72.4374 12.7299 72.301 13.4048 72.301 14.2693V19.4105H69.3891ZM81.5403 19.6834C80.5697 19.6834 79.7735 19.5318 79.1517 19.2285C78.5299 18.91 78.0674 18.4929 77.7641 17.9773C77.4608 17.4617 77.3091 16.8929 77.3091 16.2711C77.3091 15.2247 77.7186 14.3754 78.5375 13.7233C79.3565 13.0712 80.5849 12.7451 82.2228 12.7451H85.0891V12.4721C85.0891 11.6987 84.8692 11.1299 84.4294 10.766C83.9896 10.402 83.4437 10.22 82.7915 10.22C82.2001 10.22 81.6844 10.3641 81.2446 10.6522C80.8048 10.9252 80.5318 11.3347 80.4257 11.8806H77.5821C77.6579 11.0617 77.9309 10.3489 78.401 9.74227C78.8863 9.13564 79.5081 8.67309 80.2664 8.3546C81.0247 8.02096 81.874 7.85413 82.8143 7.85413C84.4218 7.85413 85.6882 8.25603 86.6133 9.05981C87.5384 9.8636 88.001 11.001 88.001 12.4721V19.4105H85.5214L85.2484 17.5906C84.9147 18.1972 84.4446 18.6977 83.838 19.092C83.2465 19.4863 82.4806 19.6834 81.5403 19.6834ZM82.2001 17.4086C83.0342 17.4086 83.6787 17.1356 84.1337 16.5896C84.6038 16.0437 84.8996 15.3688 85.0209 14.565H82.5413C81.7678 14.565 81.2143 14.7091 80.8806 14.9972C80.547 15.2702 80.3802 15.6114 80.3802 16.0209C80.3802 16.4607 80.547 16.8019 80.8806 17.0446C81.2143 17.2873 81.6541 17.4086 82.2001 17.4086ZM95.2081 19.6834C94.1465 19.6834 93.1986 19.4256 92.3645 18.91C91.5304 18.3944 90.8707 17.6891 90.3854 16.7944C89.9001 15.8996 89.6574 14.8835 89.6574 13.746C89.6574 12.6086 89.9001 11.6001 90.3854 10.7205C90.8707 9.82569 91.5304 9.12806 92.3645 8.62759C93.1986 8.11195 94.1465 7.85413 95.2081 7.85413C96.0574 7.85413 96.8005 8.01338 97.4375 8.33186C98.0744 8.65034 98.5901 9.09773 98.9844 9.67403V3.03142H101.896V19.4105H99.3029L98.9844 17.7953C98.6204 18.2958 98.1351 18.7356 97.5285 19.1147C96.937 19.4939 96.1635 19.6834 95.2081 19.6834ZM95.8223 17.1356C96.7626 17.1356 97.5285 16.8247 98.1199 16.2029C98.7266 15.5659 99.0299 14.7546 99.0299 13.7688C99.0299 12.783 98.7266 11.9792 98.1199 11.3574C97.5285 10.7205 96.7626 10.402 95.8223 10.402C94.8972 10.402 94.1313 10.7129 93.5247 11.3347C92.9181 11.9565 92.6147 12.7603 92.6147 13.746C92.6147 14.7318 92.9181 15.5432 93.5247 16.1801C94.1313 16.8171 94.8972 17.1356 95.8223 17.1356ZM109.585 19.6834C108.448 19.6834 107.44 19.4408 106.56 18.9555C105.68 18.4702 104.99 17.7877 104.49 16.9081C103.989 16.0285 103.739 15.0124 103.739 13.8598C103.739 12.692 103.982 11.6532 104.467 10.7432C104.968 9.83327 105.65 9.12806 106.514 8.62759C107.394 8.11195 108.425 7.85413 109.608 7.85413C110.715 7.85413 111.694 8.09679 112.543 8.58209C113.392 9.0674 114.052 9.73469 114.522 10.584C115.007 11.4181 115.25 12.3508 115.25 13.3821C115.25 13.5489 115.242 13.7233 115.227 13.9053C115.227 14.0873 115.22 14.2768 115.204 14.474H106.628C106.689 15.3536 106.992 16.0437 107.538 16.5441C108.099 17.0446 108.774 17.2948 109.563 17.2948C110.154 17.2948 110.647 17.1659 111.041 16.9081C111.451 16.6351 111.754 16.2863 111.951 15.8617H114.909C114.696 16.5745 114.34 17.2266 113.839 17.8181C113.354 18.3944 112.748 18.8493 112.02 19.183C111.307 19.5166 110.495 19.6834 109.585 19.6834ZM109.608 10.22C108.895 10.22 108.266 10.4247 107.72 10.8342C107.174 11.2285 106.825 11.8352 106.674 12.6541H112.293C112.247 11.911 111.974 11.3195 111.474 10.8797C110.973 10.4399 110.351 10.22 109.608 10.22ZM121.604 19.6834C120.603 19.6834 119.724 19.5242 118.965 19.2057C118.207 18.8721 117.6 18.4171 117.145 17.8408C116.69 17.2645 116.417 16.5972 116.326 15.8389H119.261C119.352 16.2787 119.595 16.6579 119.989 16.9764C120.398 17.2797 120.922 17.4313 121.559 17.4313C122.196 17.4313 122.658 17.3024 122.946 17.0446C123.25 16.7868 123.401 16.491 123.401 16.1574C123.401 15.6721 123.189 15.346 122.764 15.1792C122.34 14.9972 121.748 14.8228 120.99 14.656C120.505 14.5498 120.012 14.4209 119.511 14.2693C119.011 14.1176 118.548 13.928 118.124 13.7005C117.714 13.4579 117.38 13.1546 117.123 12.7906C116.865 12.4115 116.736 11.9489 116.736 11.4029C116.736 10.402 117.13 9.56028 117.919 8.87782C118.723 8.19536 119.845 7.85413 121.286 7.85413C122.62 7.85413 123.682 8.16503 124.47 8.78683C125.274 9.40863 125.752 10.2655 125.904 11.3574H123.151C122.984 10.5233 122.355 10.1063 121.263 10.1063C120.717 10.1063 120.292 10.2124 119.989 10.4247C119.701 10.6371 119.557 10.9025 119.557 11.2209C119.557 11.5546 119.777 11.82 120.216 12.0171C120.656 12.2143 121.24 12.3963 121.968 12.5631C122.757 12.7451 123.477 12.9498 124.129 13.1773C124.797 13.3896 125.327 13.7157 125.722 14.1555C126.116 14.5802 126.313 15.1944 126.313 15.9982C126.328 16.6958 126.146 17.3252 125.767 17.8863C125.388 18.4474 124.842 18.8872 124.129 19.2057C123.416 19.5242 122.575 19.6834 121.604 19.6834Z" fill="white"/>
<path d="M11.6455 0.554027C11.4721 0.341985 11.6231 0.0239258 11.8972 0.0239258H18.0489C18.1445 0.0239258 18.2354 0.0660382 18.2971 0.139041L27.7728 11.3408C27.8752 11.4618 27.8752 11.6389 27.7728 11.7599L18.2971 22.9617C18.2354 23.0347 18.1445 23.0768 18.0489 23.0768H11.8972C11.6231 23.0768 11.4721 22.7588 11.6455 22.5467L20.4694 11.7558C20.5671 11.6362 20.5671 11.4645 20.4694 11.345L11.6455 0.554027Z" fill="white"/>
<path fill-rule="evenodd" clip-rule="evenodd" d="M36.366 0.0249634C36.64 0.0249634 36.791 0.343022 36.6177 0.555064L28.8638 10.0374L25.2963 5.6604L29.966 0.140078C30.0278 0.0670758 30.1186 0.0249634 30.2142 0.0249634H36.366ZM25.21 17.3404L29.966 22.9627C30.0278 23.0357 30.1186 23.0778 30.2142 23.0778H36.366C36.64 23.0778 36.791 22.7598 36.6177 22.5477L28.8184 13.0099L25.21 17.3404Z" fill="white"/>
<path fill-rule="evenodd" clip-rule="evenodd" d="M3.89975 0.0239258C3.6305 0.0239258 3.41223 0.241977 3.41223 0.510958V0.533833V2.1575H0.488026C0.219036 2.1575 0.000976562 2.37556 0.000976562 2.64455C0.000976562 2.91354 0.219036 3.1316 0.488026 3.1316H3.41223V4.73191V4.75478C3.41223 5.02376 3.6305 5.24182 3.89975 5.24182H11.7508C12.1716 5.24182 12.3947 4.74492 12.1149 4.43092L8.353 0.209969C8.27922 0.127181 8.18 0.0726546 8.07227 0.0539735C8.01887 0.0343093 7.96186 0.0239258 7.90368 0.0239258H3.89975ZM5.68779 9.3005C5.68779 9.03152 5.90606 8.81346 6.17531 8.81346H15.0484C15.1941 8.81346 15.3321 8.87854 15.4247 8.99088L17.2983 11.2637C17.4466 11.4435 17.4466 11.7031 17.2983 11.8829L15.4247 14.1557C15.3321 14.2681 15.1941 14.3332 15.0484 14.3332H6.17531C5.90606 14.3332 5.68779 14.1151 5.68779 13.8461V12.0604H2.76145C2.49246 12.0604 2.27441 11.8424 2.27441 11.5734C2.27441 11.3044 2.49246 11.0863 2.76145 11.0863H5.68779V9.3005ZM3.89655 23.0999C3.6273 23.0999 3.40903 22.8818 3.40903 22.6128V20.9897H0.488026C0.219036 20.9897 0.000976562 20.7716 0.000976562 20.5026C0.000976562 20.2336 0.219036 20.0156 0.488026 20.0156H3.40903V18.3919C3.40903 18.1229 3.6273 17.9049 3.89655 17.9049H11.5975C12.0163 17.9049 12.2402 18.3977 11.9644 18.7126L8.26737 22.9336C8.1748 23.0393 8.04106 23.0999 7.90048 23.0999H3.89655Z" fill="url(#paint0_linear)"/>
<defs>
<linearGradient id="paint0_linear" x1="15.4833" y1="2.6529" x2="-2.71031" y2="16.591" gradientUnits="userSpaceOnUse">
<stop stop-color="#00F595"/>
<stop offset="1" stop-color="#00D5FB"/>
</linearGradient>
</defs>
</svg>
