<svg width="37" height="24" viewBox="0 0 37 24" fill="none" xmlns="http://www.w3.org/2000/svg">
<path d="M11.6455 0.554027C11.4721 0.341985 11.6231 0.0239258 11.8972 0.0239258H18.0489C18.1445 0.0239258 18.2354 0.0660382 18.2971 0.139041L27.7728 11.3408C27.8752 11.4618 27.8752 11.6389 27.7728 11.7599L18.2971 22.9617C18.2354 23.0347 18.1445 23.0768 18.0489 23.0768H11.8972C11.6231 23.0768 11.4721 22.7588 11.6455 22.5467L20.4694 11.7558C20.5671 11.6362 20.5671 11.4645 20.4694 11.345L11.6455 0.554027Z" fill="white"/>
<path fill-rule="evenodd" clip-rule="evenodd" d="M36.366 0.0249634C36.64 0.0249634 36.791 0.343022 36.6177 0.555064L28.8638 10.0374L25.2963 5.6604L29.966 0.140078C30.0278 0.0670758 30.1186 0.0249634 30.2142 0.0249634H36.366ZM25.21 17.3404L29.966 22.9627C30.0278 23.0357 30.1186 23.0778 30.2142 23.0778H36.366C36.64 23.0778 36.791 22.7598 36.6177 22.5477L28.8184 13.0099L25.21 17.3404Z" fill="white"/>
<path fill-rule="evenodd" clip-rule="evenodd" d="M3.89975 0.0239258C3.6305 0.0239258 3.41223 0.241977 3.41223 0.510958V0.533833V2.1575H0.488026C0.219036 2.1575 0.000976562 2.37556 0.000976562 2.64455C0.000976562 2.91354 0.219036 3.1316 0.488026 3.1316H3.41223V4.73191V4.75478C3.41223 5.02376 3.6305 5.24182 3.89975 5.24182H11.7508C12.1716 5.24182 12.3947 4.74492 12.1149 4.43092L8.353 0.209969C8.27922 0.127181 8.18 0.0726546 8.07227 0.0539735C8.01887 0.0343093 7.96186 0.0239258 7.90368 0.0239258H3.89975ZM5.68779 9.3005C5.68779 9.03152 5.90606 8.81346 6.17531 8.81346H15.0484C15.1941 8.81346 15.3321 8.87854 15.4247 8.99088L17.2983 11.2637C17.4466 11.4435 17.4466 11.7031 17.2983 11.8829L15.4247 14.1557C15.3321 14.2681 15.1941 14.3332 15.0484 14.3332H6.17531C5.90606 14.3332 5.68779 14.1151 5.68779 13.8461V12.0604H2.76145C2.49246 12.0604 2.27441 11.8424 2.27441 11.5734C2.27441 11.3044 2.49246 11.0863 2.76145 11.0863H5.68779V9.3005ZM3.89655 23.0999C3.6273 23.0999 3.40903 22.8818 3.40903 22.6128V20.9897H0.488026C0.219036 20.9897 0.000976562 20.7716 0.000976562 20.5026C0.000976562 20.2336 0.219036 20.0156 0.488026 20.0156H3.40903V18.3919C3.40903 18.1229 3.6273 17.9049 3.89655 17.9049H11.5975C12.0163 17.9049 12.2402 18.3977 11.9644 18.7126L8.26737 22.9336C8.1748 23.0393 8.04106 23.0999 7.90048 23.0999H3.89655Z" fill="url(#paint0_linear)"/>
<defs>
<linearGradient id="paint0_linear" x1="15.4833" y1="2.6529" x2="-2.71031" y2="16.591" gradientUnits="userSpaceOnUse">
<stop stop-color="#00F595"/>
<stop offset="1" stop-color="#00D5FB"/>
</linearGradient>
</defs>
</svg>
